<svg preserveAspectRatio="xMidYMid meet" width="117" height="20" overflow="visible" style="display: block;" viewBox="0 0 117.281 20.3687" fill="none" xmlns="http://www.w3.org/2000/svg">
<g id="logo">
<path id="Vector" d="M38.3021 0.132121C38.2141 0.0440404 38.0968 0 37.9722 0H30.8616C30.737 0 30.6197 0.0513805 30.5317 0.132121L24.3374 6.3198C24.2494 6.40788 24.2055 6.52532 24.2055 6.6501V19.9944C24.2055 20.1925 24.3667 20.354 24.5647 20.354H27.4749C27.6728 20.354 27.8341 20.1925 27.8341 19.9944V12.4855C27.8341 12.1185 28.1346 11.8175 28.5012 11.8175H40.34C40.7065 11.8175 41.0071 12.1185 41.0071 12.4855V19.9944C41.0071 20.1925 41.1683 20.354 41.3663 20.354H44.2765C44.4744 20.354 44.6357 20.1925 44.6357 19.9944V6.6501C44.6357 6.52532 44.5844 6.40788 44.5037 6.3198L38.3021 0.132121ZM41.0144 7.53091C41.0144 7.89792 40.7139 8.19886 40.3473 8.19886H28.5085C28.142 8.19886 27.8414 7.89792 27.8414 7.53091V4.29394C27.8414 3.92694 28.142 3.626 28.5085 3.626H40.3473C40.7139 3.626 41.0144 3.92694 41.0144 4.29394V7.53091ZM66.0702 16.7354H53.5863C53.2198 16.7354 52.9192 16.4344 52.9192 16.0674V0.359663C52.9192 0.161482 52.7579 0 52.56 0H49.6498C49.4519 0 49.2906 0.161482 49.2906 0.359663V13.7039C49.2906 13.8287 49.3419 13.9461 49.4225 14.0342L55.6169 20.2219C55.7048 20.31 55.8221 20.354 55.9467 20.354H66.0629C66.2608 20.354 66.4221 20.1925 66.4221 19.9944V17.0877C66.4221 16.8895 66.2608 16.728 66.0629 16.728L66.0702 16.7354ZM22.0063 0H14.5511C14.4265 0 14.3092 0.0513805 14.2213 0.132121L11.5969 2.75253C11.3697 2.98007 11.0105 2.98007 10.7832 2.75253L8.14424 0.132121C8.05627 0.0440404 7.93898 0 7.81436 0H0.359197C0.161272 0 0 0.161482 0 0.359663V3.26633C0 3.46451 0.161272 3.626 0.359197 3.626H9.03123C9.22183 3.626 9.37577 3.78014 9.37577 3.97098V20.009C9.37577 20.2072 9.53704 20.3687 9.73497 20.3687H12.6452C12.8431 20.3687 13.0044 20.2072 13.0044 20.009V3.96364C13.0044 3.7728 13.1583 3.61865 13.3489 3.61865H22.021C22.2189 3.61865 22.3802 3.45717 22.3802 3.25899V0.359663C22.3802 0.161482 22.2189 0 22.021 0H22.0063ZM88.6263 0H85.7161C85.5182 0 85.3569 0.161482 85.3569 0.359663V16.0674C85.3569 16.4344 85.0563 16.7354 84.6898 16.7354H72.851C72.4844 16.7354 72.1839 16.4344 72.1839 16.0674V0.359663C72.1839 0.161482 72.0226 0 71.8247 0H68.9145C68.7165 0 68.5553 0.161482 68.5553 0.359663V13.7039C68.5553 13.8287 68.6066 13.9461 68.6872 14.0342L74.8815 20.2219C74.9695 20.31 75.0868 20.354 75.2114 20.354H82.322C82.4467 20.354 82.5639 20.3026 82.6519 20.2219L88.8462 14.0342C88.9342 13.9461 88.9782 13.8287 88.9782 13.7039V0.359663C88.9782 0.161482 88.8169 0 88.619 0H88.6263ZM106.894 8.44842C106.806 8.36034 106.689 8.3163 106.564 8.3163H97.2617C96.8952 8.3163 96.5946 8.01536 96.5946 7.64835V4.30862C96.5946 3.93428 96.8952 3.626 97.2763 3.626H109.064C109.43 3.626 109.731 3.92694 109.731 4.29394V6.36384C109.731 6.56202 109.892 6.72351 110.09 6.72351H113C113.198 6.72351 113.36 6.56202 113.36 6.36384V3.51589C113.36 3.39111 113.316 3.27367 113.228 3.18559L110.178 0.139461C110.09 0.0513805 109.973 0.00734007 109.848 0.00734007H96.3967C96.2721 0.00734007 96.1548 0.0587206 96.0668 0.139461L93.1126 3.09017C93.0246 3.17825 92.9806 3.29569 92.9806 3.42047V5.13805C92.9806 5.26283 93.032 5.38027 93.1126 5.46835L99.4608 11.8102C99.5488 11.8983 99.6661 11.9423 99.7907 11.9423H109.115C109.482 11.9423 109.782 12.2432 109.782 12.6102V16.0748C109.782 16.4418 109.482 16.7427 109.115 16.7427H97.2763C96.9098 16.7427 96.6093 16.4418 96.6093 16.0748V13.9608C96.6093 13.7626 96.448 13.6012 96.2501 13.6012H93.3398C93.1419 13.6012 92.9806 13.7626 92.9806 13.9608V16.9482C92.9806 17.073 93.032 17.1904 93.1126 17.2785L96.0668 20.2292C96.1548 20.3173 96.2721 20.3614 96.3967 20.3614H109.848C109.973 20.3614 110.09 20.31 110.178 20.2292L113.279 17.1391C113.367 17.051 113.411 16.9335 113.411 16.8088V15.1499C113.411 15.0251 113.36 14.9077 113.279 14.8196L106.909 8.45576L106.894 8.44842ZM116.043 0C115.361 0 114.804 0.557845 114.804 1.24047C114.804 1.9231 115.361 2.48094 116.043 2.48094C116.724 2.48094 117.281 1.9231 117.281 1.24047C117.281 0.557845 116.724 0 116.043 0ZM116.043 2.2534C115.485 2.2534 115.031 1.79832 115.031 1.24047C115.031 0.682627 115.485 0.227542 116.043 0.227542C116.6 0.227542 117.054 0.682627 117.054 1.24047C117.054 1.79832 116.6 2.2534 116.043 2.2534ZM116.526 1.32121C116.6 1.28451 116.658 1.24047 116.68 1.18909C116.71 1.13771 116.724 1.07899 116.724 1.02027C116.724 0.946869 116.71 0.888149 116.673 0.822088C116.636 0.763367 116.585 0.711987 116.504 0.667946C116.431 0.623906 116.336 0.609226 116.218 0.609226H115.713C115.713 0.609226 115.669 0.616566 115.647 0.638586L115.449 0.836768C115.449 0.836768 115.419 0.873468 115.419 0.902829V1.76162H115.698V1.47535C115.698 1.47535 115.698 1.46067 115.705 1.45333C115.705 1.45333 115.72 1.44599 115.727 1.44599H116.211C116.27 1.44599 116.321 1.45333 116.35 1.47535C116.38 1.49737 116.402 1.52673 116.416 1.57078C116.431 1.61482 116.438 1.68088 116.453 1.76896H116.732C116.732 1.6662 116.71 1.57812 116.688 1.50471C116.658 1.43131 116.607 1.37259 116.526 1.33589V1.32121ZM116.387 1.14505C116.387 1.14505 116.299 1.18909 116.211 1.18909H115.735C115.735 1.18909 115.72 1.18909 115.713 1.18175C115.713 1.18175 115.705 1.16707 115.705 1.15973V0.902829C115.705 0.902829 115.705 0.888149 115.713 0.880809C115.713 0.880809 115.727 0.873469 115.735 0.873469H116.211C116.299 0.873469 116.35 0.888149 116.387 0.917509C116.424 0.946869 116.431 0.98357 116.431 1.03495C116.431 1.08633 116.416 1.13037 116.38 1.15973L116.387 1.14505Z" fill="var(--fill-0, #FAF8F5)" style="fill:#FAF8F5;fill:color(display-p3 0.9804 0.9725 0.9608);fill-opacity:1;"/>
</g>
</svg>
