<svg preserveAspectRatio="xMidYMid meet" width="25" height="21" overflow="visible" style="display: block;" viewBox="0 0 25 21" fill="none" xmlns="http://www.w3.org/2000/svg">
<g id="telegram" clip-path="url(#clip0_0_4)">
<path id="Vector" fill-rule="evenodd" clip-rule="evenodd" d="M1.71191 9.05692C8.42152 6.10273 12.8882 4.13975 15.1311 3.18741C21.5148 0.485886 22.8568 0.0194354 23.7194 0C23.9111 0 24.3329 0.0388709 24.6204 0.272096C24.8505 0.466451 24.908 0.719111 24.9463 0.913466C24.9847 1.10782 25.023 1.51596 24.9847 1.82693C24.6396 5.51967 23.1443 14.4794 22.3775 18.5997C22.0516 20.3489 21.419 20.932 20.8055 20.9903C19.4636 21.1069 18.4476 20.0963 17.1632 19.2411C15.1311 17.9 14.0001 17.0643 12.0255 15.7427C9.74427 14.2267 11.2204 13.391 12.524 12.0305C12.869 11.6807 18.7543 6.23878 18.8693 5.75289C18.8885 5.69459 18.8885 5.46136 18.7543 5.34475C18.6201 5.22813 18.4284 5.26701 18.2751 5.30588C18.0642 5.34475 14.8436 7.52152 8.57488 11.8168C7.6547 12.4581 6.83038 12.7691 6.08274 12.7497C5.25842 12.7302 3.68645 12.2832 2.49789 11.8945C1.06012 11.428 -0.0901004 11.1754 0.00575109 10.3591C0.063262 9.93151 0.638371 9.50393 1.71191 9.05692Z" fill="var(--fill-0, #FAF8F5)" style="fill:#FAF8F5;fill:color(display-p3 0.9804 0.9725 0.9608);fill-opacity:1;"/>
</g>
<defs>
<clipPath id="clip0_0_4">
<rect width="25" height="21" fill="white" style="fill:white;fill-opacity:1;"/>
</clipPath>
</defs>
</svg>
