<svg preserveAspectRatio="none" width="100%" height="100%" overflow="visible" style="display: block;" viewBox="0 0 186 40" fill="none" xmlns="http://www.w3.org/2000/svg">
<g id="Layer_1" clip-path="url(#clip0_0_4)">
<path id="Vector" d="M178.884 15.2746C178.809 15.2746 178.782 15.2271 178.803 15.1661L180.731 9.58644C180.744 9.53898 180.798 9.51186 180.846 9.51186H182.32C182.368 9.51186 182.422 9.53898 182.435 9.58644L184.363 15.1661C184.377 15.2203 184.356 15.2746 184.282 15.2746H183.125C183.078 15.2746 183.037 15.2475 183.017 15.1932L182.706 14.1695H180.433L180.122 15.1932C180.108 15.2407 180.068 15.2746 180.014 15.2746H178.884ZM180.758 13.1458H182.395L181.596 10.5695H181.556L180.758 13.1458Z" fill="var(--fill-0, #FAF8F5)" style="fill:#FAF8F5;fill:color(display-p3 0.9804 0.9725 0.9608);fill-opacity:1;"/>
<path id="Vector_2" d="M184.735 15.2746C184.667 15.2746 184.634 15.2407 184.634 15.1729V9.60678C184.634 9.53898 184.667 9.50508 184.735 9.50508H185.912C185.966 9.50508 186 9.53898 186 9.60678V15.1729C186 15.2407 185.966 15.2746 185.912 15.2746H184.735Z" fill="var(--fill-0, #FAF8F5)" style="fill:#FAF8F5;fill:color(display-p3 0.9804 0.9725 0.9608);fill-opacity:1;"/>
<path id="Vector_3" fill-rule="evenodd" clip-rule="evenodd" d="M19.5896 0.000169491C19.7114 0.000169491 19.8331 0.000169491 19.9549 0.000169491H39.4566C39.5784 0.000169491 39.7001 0.000169491 39.8219 0.000169491C40.6877 -0.0133898 41.5265 0.0544068 42.3315 0.203559C51.991 1.60017 59.4115 9.93237 59.4115 20.0002C59.4115 30.068 51.991 38.4002 42.3315 39.7968C41.5265 39.9459 40.6877 40.0137 39.8219 40.0002C39.7001 40.0002 39.5784 40.0002 39.4566 40.0002H19.9549C19.8331 40.0002 19.7114 40.0002 19.5896 40.0002C18.7238 40.0137 17.885 39.9459 17.08 39.7968C7.42052 38.4002 0 30.068 0 20.0002C0 9.93237 7.42052 1.60695 17.08 0.203559C17.885 0.0544068 18.7238 -0.00661017 19.5896 0.000169491ZM17.628 3.23407C18.3044 3.13915 18.9876 3.08492 19.6843 3.07814C20.929 3.11203 22.3292 3.34932 23.8647 3.8239C24.4126 3.99339 24.9673 4.19 25.5288 4.40695C25.982 4.58322 26.0293 5.19339 25.637 5.47136C23.7024 6.84085 21.8016 8.44085 19.9955 10.2578C18.1894 12.068 16.593 13.9798 15.2266 15.912C14.9493 16.3053 14.3405 16.2578 14.1646 15.8036C13.9414 15.2408 13.752 14.6849 13.5829 14.1425C12.2706 9.83746 12.7576 6.57644 14.5434 4.78661C15.3078 4.01373 16.3495 3.48492 17.628 3.24085V3.23407ZM9.88952 7.8917C9.97069 7.30864 9.30101 6.85441 8.85457 7.24085C5.83089 9.88492 3.75423 13.6002 3.20631 17.79C3.15896 18.1493 3.44307 18.4612 3.80158 18.4612H10.9989C11.4453 18.4612 11.743 17.9934 11.5671 17.5798C11.2086 16.7256 10.8974 15.8714 10.6404 15.0375C9.88952 12.5697 9.57835 10.1086 9.87599 7.8917H9.88952ZM11.5806 22.4137C11.7565 22.0002 11.4589 21.5324 11.0124 21.5324H3.80834C3.44983 21.5324 3.16573 21.8442 3.21308 22.2036C3.76099 26.3934 5.83089 30.1086 8.86133 32.7527C9.30102 33.1392 9.97069 32.6849 9.89628 32.1019C9.59865 29.8849 9.90304 27.4239 10.6607 24.9561C10.9177 24.1222 11.2221 23.268 11.5874 22.4137H11.5806ZM19.6843 36.9222C18.9876 36.9086 18.2976 36.8612 17.628 36.7663C16.3495 36.5154 15.3145 35.9866 14.5434 35.2205C12.7576 33.4307 12.2706 30.1697 13.5829 25.8646C13.752 25.3222 13.9414 24.7663 14.1646 24.2036C14.3405 23.7493 14.9493 23.6951 15.2266 24.0951C16.5862 26.0341 18.1826 27.9392 19.9955 29.7493C21.8016 31.5663 23.7091 33.1663 25.637 34.5358C26.0293 34.8137 25.9752 35.4239 25.5288 35.6002C24.9673 35.8239 24.4126 36.0205 23.8647 36.1832C22.3292 36.6578 20.929 36.8951 19.6843 36.929V36.9222ZM33.7745 34.529C33.3822 34.8069 33.4363 35.4171 33.8828 35.5934C34.4442 35.8171 34.9989 36.0137 35.5468 36.1764C37.0823 36.651 38.4825 36.8883 39.7272 36.9222C40.4239 36.9086 41.1139 36.8612 41.7835 36.7663C43.062 36.5154 44.097 35.9866 44.8681 35.2205C46.6539 33.4307 47.1409 30.1697 45.8286 25.8646C45.6595 25.3222 45.4701 24.7663 45.2469 24.2036C45.071 23.7493 44.4622 23.6951 44.1849 24.0951C42.8253 26.0341 41.2289 27.9392 39.416 29.7493C37.6099 31.5663 35.7024 33.1663 33.7745 34.5358V34.529ZM48.4059 21.5392C47.9594 21.5392 47.6618 22.0069 47.8377 22.4205C48.1962 23.2747 48.5073 24.129 48.7644 24.9629C49.5152 27.4307 49.8264 29.8917 49.5288 32.1086C49.4476 32.6917 50.1172 33.1459 50.5637 32.7595C53.5874 30.1154 55.664 26.4002 56.212 22.2103C56.2593 21.851 55.9752 21.5392 55.6167 21.5392H48.4194H48.4059ZM55.6032 18.4612C55.9617 18.4612 56.2458 18.1493 56.1984 17.79C55.6505 13.6002 53.5806 9.88492 50.5502 7.24085C50.1105 6.85441 49.4408 7.30864 49.5152 7.8917C49.8129 10.1086 49.5085 12.5697 48.7508 15.0375C48.4938 15.8714 48.1894 16.7256 47.8241 17.5798C47.6483 17.9934 47.9459 18.4612 48.3923 18.4612H55.5896H55.6032ZM44.1849 15.912C44.4622 16.3053 45.071 16.2578 45.2469 15.8036C45.4701 15.2408 45.6595 14.6849 45.8286 14.1425C47.1409 9.83746 46.6539 6.57644 44.8681 4.78661C44.1037 4.01373 43.062 3.48492 41.7835 3.24085C41.1071 3.14593 40.4239 3.0917 39.7272 3.08492C38.4825 3.11881 37.0823 3.3561 35.5468 3.83068C34.9989 4.00017 34.4442 4.19678 33.8828 4.41373C33.4295 4.59 33.3822 5.20017 33.7745 5.47814C35.7091 6.84763 37.6099 8.44763 39.416 10.2646C41.2221 12.0747 42.8185 13.9866 44.1849 15.9188V15.912ZM30.0203 6.67136C29.8309 6.5561 29.5874 6.5561 29.3912 6.67136C26.956 8.16288 24.4938 10.0951 22.1669 12.4273C20.5231 14.0747 19.0823 15.79 17.8579 17.512C17.5738 17.912 17.8579 18.4612 18.3517 18.4612H41.0598C41.5468 18.4612 41.8377 17.912 41.5536 17.512C40.3292 15.79 38.8816 14.0747 37.2446 12.4273C34.9177 10.0883 32.4487 8.1561 30.0203 6.67136ZM41.5603 22.4815C41.8444 22.0815 41.5603 21.5324 41.0665 21.5324H18.3517C17.8647 21.5324 17.5738 22.0815 17.8579 22.4815C19.0823 24.2036 20.5299 25.9188 22.1669 27.5663C24.4938 29.9053 26.9628 31.8375 29.3912 33.3222C29.5806 33.4375 29.8241 33.4375 30.0203 33.3222C32.4555 31.8307 34.9177 29.8985 37.2446 27.5663C38.8884 25.9188 40.3292 24.2036 41.5536 22.4815H41.5603Z" fill="var(--fill-0, #FAF8F5)" style="fill:#FAF8F5;fill:color(display-p3 0.9804 0.9725 0.9608);fill-opacity:1;"/>
<path id="Vector_4" d="M166.843 31.3424C166.688 31.3424 166.559 31.2814 166.498 31.0915L160.492 15.6475C160.397 15.4237 160.492 15.2678 160.715 15.2678H163.705C163.86 15.2678 164.016 15.3288 164.083 15.5186L168.737 28.4746H168.866L173.52 15.5186C173.581 15.3288 173.743 15.2678 173.899 15.2678H176.76C176.976 15.2678 177.071 15.4237 176.976 15.6475L170.97 31.0915C170.909 31.2814 170.78 31.3424 170.625 31.3424H166.85H166.843Z" fill="var(--fill-0, #FAF8F5)" style="fill:#FAF8F5;fill:color(display-p3 0.9804 0.9725 0.9608);fill-opacity:1;"/>
<path id="Vector_5" d="M150.379 31.3424C147.423 31.3424 145.82 29.7356 145.82 26.7729V10.861C145.82 10.6712 145.948 10.5492 146.138 10.5492H148.999C149.188 10.5492 149.31 10.678 149.31 10.861V15.2746H153.179C153.369 15.2746 153.49 15.4034 153.49 15.5864V17.7288C153.49 17.9186 153.362 18.0407 153.179 18.0407H149.31V28.5695H153.179C153.369 28.5695 153.49 28.6983 153.49 28.8814V31.0237C153.49 31.2136 153.362 31.3356 153.179 31.3356H150.379V31.3424Z" fill="var(--fill-0, #FAF8F5)" style="fill:#FAF8F5;fill:color(display-p3 0.9804 0.9725 0.9608);fill-opacity:1;"/>
<path id="Vector_6" d="M136.735 31.5322C131.831 31.5322 128.652 28.3186 128.652 23.3356C128.652 18.3525 131.926 15.078 136.735 15.078C140.665 15.078 143.432 17.2814 143.905 20.5898C143.939 20.8136 143.777 20.9356 143.587 20.9356H140.821C140.598 20.9356 140.537 20.8407 140.476 20.6237C140.063 18.7661 138.778 17.9119 136.735 17.9119C133.874 17.9119 132.21 19.9932 132.21 23.3356C132.21 26.678 133.908 28.6915 136.735 28.6915C138.906 28.6915 140.131 27.9051 140.631 25.9525C140.665 25.7627 140.787 25.6678 140.976 25.6678H143.743C143.932 25.6678 144.088 25.7627 144.054 25.9525C143.52 29.2949 140.814 31.5322 136.728 31.5322H136.735Z" fill="var(--fill-0, #FAF8F5)" style="fill:#FAF8F5;fill:color(display-p3 0.9804 0.9725 0.9608);fill-opacity:1;"/>
<path id="Vector_7" d="M120.074 31.5322C115.136 31.5322 111.964 28.3186 111.964 23.3356C111.964 18.3525 115.136 15.078 120.074 15.078C124.634 15.078 127.461 18.2305 127.461 23.3017V24.1559C127.461 24.3458 127.333 24.4678 127.15 24.4678H115.549C115.799 27.1119 117.375 28.6915 120.074 28.6915C122.212 28.6915 123.504 27.8712 123.944 26.5492C124.005 26.3593 124.099 26.2983 124.289 26.2983H127.055C127.278 26.2983 127.4 26.3932 127.366 26.5492C126.798 29.478 124.194 31.5254 120.074 31.5254V31.5322ZM115.576 21.9186H124.032C123.876 19.4305 122.368 17.9186 120.068 17.9186C117.43 17.9186 115.887 19.3085 115.569 21.9186H115.576Z" fill="var(--fill-0, #FAF8F5)" style="fill:#FAF8F5;fill:color(display-p3 0.9804 0.9725 0.9608);fill-opacity:1;"/>
<path id="Vector_8" d="M109.793 31.3424C106.837 31.3424 105.233 29.7356 105.233 26.7729V8.96949C105.233 8.77966 105.362 8.65763 105.545 8.65763H108.406C108.595 8.65763 108.717 8.78644 108.717 8.96949V28.5695H111.639C111.829 28.5695 111.957 28.6983 111.957 28.8814V31.0237C111.957 31.2136 111.829 31.3356 111.639 31.3356H109.786L109.793 31.3424Z" fill="var(--fill-0, #FAF8F5)" style="fill:#FAF8F5;fill:color(display-p3 0.9804 0.9725 0.9608);fill-opacity:1;"/>
<path id="Vector_9" d="M96.1218 31.3424C95.9324 31.3424 95.8038 31.2136 95.8038 31.0305V13.2271C95.8038 10.2644 97.407 8.65763 100.363 8.65763H103.163C103.353 8.65763 103.475 8.78644 103.475 8.96949V11.1119C103.475 11.3017 103.346 11.4237 103.163 11.4237H99.2942V15.2678H103.163C103.353 15.2678 103.475 15.3966 103.475 15.5797V17.722C103.475 17.9119 103.346 18.0339 103.163 18.0339H99.2942V31.0169C99.2942 31.2068 99.1657 31.3288 98.9831 31.3288H96.1218V31.3424Z" fill="var(--fill-0, #FAF8F5)" style="fill:#FAF8F5;fill:color(display-p3 0.9804 0.9725 0.9608);fill-opacity:1;"/>
<path id="Vector_10" d="M79.3529 31.3424C79.1635 31.3424 79.0417 31.2136 79.0417 31.0305V15.5864C79.0417 15.3966 79.1702 15.2746 79.3529 15.2746H82.0586C82.248 15.2746 82.3766 15.4034 82.3766 15.5864V17.7288H82.5051C83.6347 16.0271 85.4002 15.0847 87.5648 15.0847C91.2108 15.0847 93.2266 17.5729 93.2266 22.3322V31.0305C93.2266 31.2203 93.1049 31.3424 92.9155 31.3424H90.0541C89.8647 31.3424 89.743 31.2136 89.743 31.0305V22.3322C89.743 19.3695 88.6404 18.0475 86.1578 18.0475C83.6753 18.0475 82.5389 19.4034 82.5389 22.3322V31.0305C82.5389 31.2203 82.4104 31.3424 82.2277 31.3424H79.3664H79.3529Z" fill="var(--fill-0, #FAF8F5)" style="fill:#FAF8F5;fill:color(display-p3 0.9804 0.9725 0.9608);fill-opacity:1;"/>
<path id="Vector_11" d="M73.2446 31.3424C73.0552 31.3424 72.9335 31.2136 72.9335 31.0305V15.5864C72.9335 15.3966 73.062 15.2746 73.2446 15.2746H76.106C76.2954 15.2746 76.4171 15.4034 76.4171 15.5864V31.0305C76.4171 31.2203 76.2886 31.3424 76.106 31.3424H73.2446Z" fill="var(--fill-0, #FAF8F5)" style="fill:#FAF8F5;fill:color(display-p3 0.9804 0.9725 0.9608);fill-opacity:1;"/>
<path id="Vector_12" d="M76.6877 10.4814C76.6877 11.5932 75.788 12.5017 74.6719 12.5017C73.5558 12.5017 72.6629 11.6 72.6629 10.4814C72.6629 9.36271 73.5626 8.4678 74.6719 8.4678C75.7813 8.4678 76.6877 9.36949 76.6877 10.4814Z" fill="var(--fill-0, #FAF8F5)" style="fill:#FAF8F5;fill:color(display-p3 0.9804 0.9725 0.9608);fill-opacity:1;"/>
<path id="Vector_13" d="M155.824 31.3424C155.635 31.3424 155.513 31.2136 155.513 31.0305V15.5864C155.513 15.3966 155.641 15.2746 155.824 15.2746H158.685C158.875 15.2746 158.997 15.4034 158.997 15.5864V31.0305C158.997 31.2203 158.868 31.3424 158.685 31.3424H155.824Z" fill="var(--fill-0, #FAF8F5)" style="fill:#FAF8F5;fill:color(display-p3 0.9804 0.9725 0.9608);fill-opacity:1;"/>
<path id="Vector_14" d="M159.267 10.4814C159.267 11.5932 158.368 12.5017 157.251 12.5017C156.135 12.5017 155.236 11.6 155.236 10.4814C155.236 9.36271 156.135 8.4678 157.251 8.4678C158.368 8.4678 159.267 9.36949 159.267 10.4814Z" fill="var(--fill-0, #FAF8F5)" style="fill:#FAF8F5;fill:color(display-p3 0.9804 0.9725 0.9608);fill-opacity:1;"/>
</g>
<defs>
<clipPath id="clip0_0_4">
<rect width="186" height="40" fill="white" style="fill:white;fill-opacity:1;"/>
</clipPath>
</defs>
</svg>
