<svg preserveAspectRatio="none" width="100%" height="100%" overflow="visible" style="display: block;" viewBox="0 0 72 72" fill="none" xmlns="http://www.w3.org/2000/svg">
<g id="Layer_1" clip-path="url(#clip0_0_4)">
<path id="Vector" d="M10.43 57.56L14.44 61.57L10.43 65.58L6.42 61.57L10.43 57.56ZM10.43 56.15L5.01 61.57L10.43 66.99L15.85 61.57L10.43 56.15Z" fill="var(--fill-0, #FAF8F5)" style="fill:#FAF8F5;fill:color(display-p3 0.9804 0.9725 0.9608);fill-opacity:1;"/>
<path id="Vector_2" d="M19.86 52.14V71H1V52.14H19.86ZM20.86 51.14H0V72H20.86V51.14Z" fill="var(--fill-0, #FAF8F5)" style="fill:#FAF8F5;fill:color(display-p3 0.9804 0.9725 0.9608);fill-opacity:1;"/>
<path id="Vector_3" d="M61.57 57.56L65.58 61.57L61.57 65.58L57.56 61.57L61.57 57.56ZM61.57 56.15L56.15 61.57L61.57 66.99L66.99 61.57L61.57 56.15Z" fill="var(--fill-0, #FAF8F5)" style="fill:#FAF8F5;fill:color(display-p3 0.9804 0.9725 0.9608);fill-opacity:1;"/>
<path id="Vector_4" d="M71 52.14V71H52.14V52.14H71ZM72 51.14H51.14V72H72V51.14Z" fill="var(--fill-0, #FAF8F5)" style="fill:#FAF8F5;fill:color(display-p3 0.9804 0.9725 0.9608);fill-opacity:1;"/>
<path id="Vector_5" d="M36 57.56L40.01 61.57L36 65.58L31.99 61.57L36 57.56ZM36 56.15L30.58 61.57L36 66.99L41.42 61.57L36 56.15Z" fill="var(--fill-0, #FAF8F5)" style="fill:#FAF8F5;fill:color(display-p3 0.9804 0.9725 0.9608);fill-opacity:1;"/>
<path id="Vector_6" d="M36 31.99L40.01 36L36 40.01L31.99 36L36 31.99ZM36 30.58L30.58 36L36 41.42L41.42 36L36 30.58Z" fill="var(--fill-0, #FAF8F5)" style="fill:#FAF8F5;fill:color(display-p3 0.9804 0.9725 0.9608);fill-opacity:1;"/>
<path id="Vector_7" d="M45.43 52.14V71H26.57V52.14H45.43ZM46.43 51.14H25.57V72H46.43V51.14Z" fill="var(--fill-0, #FAF8F5)" style="fill:#FAF8F5;fill:color(display-p3 0.9804 0.9725 0.9608);fill-opacity:1;"/>
<path id="Vector_8" d="M10.43 6.42L14.44 10.43L10.43 14.44L6.42 10.43L10.43 6.42ZM10.43 5.01L5.01 10.43L10.43 15.85L15.85 10.43L10.43 5.01Z" fill="var(--fill-0, #FAF8F5)" style="fill:#FAF8F5;fill:color(display-p3 0.9804 0.9725 0.9608);fill-opacity:1;"/>
<path id="Vector_9" d="M19.86 1V19.86H1V1H19.86ZM20.86 0H0V20.86H20.86V0Z" fill="var(--fill-0, #FAF8F5)" style="fill:#FAF8F5;fill:color(display-p3 0.9804 0.9725 0.9608);fill-opacity:1;"/>
<path id="Vector_10" d="M61.57 6.42L65.58 10.43L61.57 14.44L57.56 10.43L61.57 6.42ZM61.57 5.01L56.15 10.43L61.57 15.85L66.99 10.43L61.57 5.01Z" fill="var(--fill-0, #FAF8F5)" style="fill:#FAF8F5;fill:color(display-p3 0.9804 0.9725 0.9608);fill-opacity:1;"/>
<path id="Vector_11" d="M71 1V19.86H52.14V1H71ZM72 0H51.14V20.86H72V0Z" fill="var(--fill-0, #FAF8F5)" style="fill:#FAF8F5;fill:color(display-p3 0.9804 0.9725 0.9608);fill-opacity:1;"/>
<path id="Vector_12" d="M36 6.42L40.01 10.43L36 14.44L31.99 10.43L36 6.42ZM36 5.01L30.58 10.43L36 15.85L41.42 10.43L36 5.01Z" fill="var(--fill-0, #FAF8F5)" style="fill:#FAF8F5;fill:color(display-p3 0.9804 0.9725 0.9608);fill-opacity:1;"/>
<path id="Vector_13" d="M45.43 1V19.86H26.57V1H45.43ZM46.43 0H25.57V20.86H46.43V0Z" fill="var(--fill-0, #FAF8F5)" style="fill:#FAF8F5;fill:color(display-p3 0.9804 0.9725 0.9608);fill-opacity:1;"/>
<path id="Vector_14" d="M11.43 35C10.88 35 10.43 35.45 10.43 36C10.43 36.55 10.88 37 11.43 37C11.98 37 12.43 36.55 12.43 36C12.43 35.45 11.98 35 11.43 35Z" fill="var(--fill-0, #54575A)" style="fill:#54575A;fill:color(display-p3 0.3294 0.3412 0.3529);fill-opacity:1;"/>
<path id="Vector_15" d="M16.43 35C15.88 35 15.43 35.45 15.43 36C15.43 36.55 15.88 37 16.43 37C16.98 37 17.43 36.55 17.43 36C17.43 35.45 16.98 35 16.43 35Z" fill="var(--fill-0, #54575A)" style="fill:#54575A;fill:color(display-p3 0.3294 0.3412 0.3529);fill-opacity:1;"/>
<path id="Vector_16" d="M21.43 35C20.88 35 20.43 35.45 20.43 36C20.43 36.55 20.88 37 21.43 37C21.98 37 22.43 36.55 22.43 36C22.43 35.45 21.98 35 21.43 35Z" fill="var(--fill-0, #54575A)" style="fill:#54575A;fill:color(display-p3 0.3294 0.3412 0.3529);fill-opacity:1;"/>
<path id="Vector_17" d="M26.43 35C25.88 35 25.43 35.45 25.43 36C25.43 36.55 25.88 37 26.43 37C26.98 37 27.43 36.55 27.43 36C27.43 35.45 26.98 35 26.43 35Z" fill="var(--fill-0, #54575A)" style="fill:#54575A;fill:color(display-p3 0.3294 0.3412 0.3529);fill-opacity:1;"/>
<path id="Vector_18" d="M11.43 30C10.88 30 10.43 30.45 10.43 31C10.43 31.55 10.88 32 11.43 32C11.98 32 12.43 31.55 12.43 31C12.43 30.45 11.98 30 11.43 30Z" fill="var(--fill-0, #54575A)" style="fill:#54575A;fill:color(display-p3 0.3294 0.3412 0.3529);fill-opacity:1;"/>
<path id="Vector_19" d="M11.43 25C10.88 25 10.43 25.45 10.43 26C10.43 26.55 10.88 27 11.43 27C11.98 27 12.43 26.55 12.43 26C12.43 25.45 11.98 25 11.43 25Z" fill="var(--fill-0, #54575A)" style="fill:#54575A;fill:color(display-p3 0.3294 0.3412 0.3529);fill-opacity:1;"/>
<path id="Vector_20" d="M11.43 40C10.88 40 10.43 40.45 10.43 41C10.43 41.55 10.88 42 11.43 42C11.98 42 12.43 41.55 12.43 41C12.43 40.45 11.98 40 11.43 40Z" fill="var(--fill-0, #54575A)" style="fill:#54575A;fill:color(display-p3 0.3294 0.3412 0.3529);fill-opacity:1;"/>
<path id="Vector_21" d="M11.43 45C10.88 45 10.43 45.45 10.43 46C10.43 46.55 10.88 47 11.43 47C11.98 47 12.43 46.55 12.43 46C12.43 45.45 11.98 45 11.43 45Z" fill="var(--fill-0, #54575A)" style="fill:#54575A;fill:color(display-p3 0.3294 0.3412 0.3529);fill-opacity:1;"/>
<path id="Vector_22" d="M61.57 35C61.02 35 60.57 35.45 60.57 36C60.57 36.55 61.02 37 61.57 37C62.12 37 62.57 36.55 62.57 36C62.57 35.45 62.12 35 61.57 35Z" fill="var(--fill-0, #54575A)" style="fill:#54575A;fill:color(display-p3 0.3294 0.3412 0.3529);fill-opacity:1;"/>
<path id="Vector_23" d="M56.57 35C56.02 35 55.57 35.45 55.57 36C55.57 36.55 56.02 37 56.57 37C57.12 37 57.57 36.55 57.57 36C57.57 35.45 57.12 35 56.57 35Z" fill="var(--fill-0, #54575A)" style="fill:#54575A;fill:color(display-p3 0.3294 0.3412 0.3529);fill-opacity:1;"/>
<path id="Vector_24" d="M51.57 35C51.02 35 50.57 35.45 50.57 36C50.57 36.55 51.02 37 51.57 37C52.12 37 52.57 36.55 52.57 36C52.57 35.45 52.12 35 51.57 35Z" fill="var(--fill-0, #54575A)" style="fill:#54575A;fill:color(display-p3 0.3294 0.3412 0.3529);fill-opacity:1;"/>
<path id="Vector_25" d="M46.57 35C46.02 35 45.57 35.45 45.57 36C45.57 36.55 46.02 37 46.57 37C47.12 37 47.57 36.55 47.57 36C47.57 35.45 47.12 35 46.57 35Z" fill="var(--fill-0, #54575A)" style="fill:#54575A;fill:color(display-p3 0.3294 0.3412 0.3529);fill-opacity:1;"/>
<path id="Vector_26" d="M61.57 30C61.02 30 60.57 30.45 60.57 31C60.57 31.55 61.02 32 61.57 32C62.12 32 62.57 31.55 62.57 31C62.57 30.45 62.12 30 61.57 30Z" fill="var(--fill-0, #54575A)" style="fill:#54575A;fill:color(display-p3 0.3294 0.3412 0.3529);fill-opacity:1;"/>
<path id="Vector_27" d="M61.57 25C61.02 25 60.57 25.45 60.57 26C60.57 26.55 61.02 27 61.57 27C62.12 27 62.57 26.55 62.57 26C62.57 25.45 62.12 25 61.57 25Z" fill="var(--fill-0, #54575A)" style="fill:#54575A;fill:color(display-p3 0.3294 0.3412 0.3529);fill-opacity:1;"/>
<path id="Vector_28" d="M61.57 40C61.02 40 60.57 40.45 60.57 41C60.57 41.55 61.02 42 61.57 42C62.12 42 62.57 41.55 62.57 41C62.57 40.45 62.12 40 61.57 40Z" fill="var(--fill-0, #54575A)" style="fill:#54575A;fill:color(display-p3 0.3294 0.3412 0.3529);fill-opacity:1;"/>
<path id="Vector_29" d="M61.57 45C61.02 45 60.57 45.45 60.57 46C60.57 46.55 61.02 47 61.57 47C62.12 47 62.57 46.55 62.57 46C62.57 45.45 62.12 45 61.57 45Z" fill="var(--fill-0, #54575A)" style="fill:#54575A;fill:color(display-p3 0.3294 0.3412 0.3529);fill-opacity:1;"/>
<path id="Vector_30" d="M36 25C35.45 25 35 25.45 35 26C35 26.55 35.45 27 36 27C36.55 27 37 26.55 37 26C37 25.45 36.55 25 36 25Z" fill="var(--fill-0, #54575A)" style="fill:#54575A;fill:color(display-p3 0.3294 0.3412 0.3529);fill-opacity:1;"/>
<path id="Vector_31" d="M36 45C35.45 45 35 45.45 35 46C35 46.55 35.45 47 36 47C36.55 47 37 46.55 37 46C37 45.45 36.55 45 36 45Z" fill="var(--fill-0, #54575A)" style="fill:#54575A;fill:color(display-p3 0.3294 0.3412 0.3529);fill-opacity:1;"/>
</g>
<defs>
<clipPath id="clip0_0_4">
<rect width="72" height="72" fill="white" style="fill:white;fill-opacity:1;"/>
</clipPath>
</defs>
</svg>
