<svg preserveAspectRatio="xMidYMid meet" width="21" height="21" overflow="visible" style="display: block;" viewBox="0 0 21 21" fill="none" xmlns="http://www.w3.org/2000/svg">
<path id="linkedin" fill-rule="evenodd" clip-rule="evenodd" d="M18.6667 0H2.33333C1.04417 0 0 1.04417 0 2.33333V18.6667C0 19.9558 1.04417 21 2.33333 21H18.6667C19.9558 21 21 19.9558 21 18.6667V2.33333C21 1.04417 19.9558 0 18.6667 0ZM6.34958 18.0833H3.21708V7.97125H6.34958V18.0833ZM4.76875 6.64708C3.745 6.64708 2.91667 5.81292 2.91667 4.78042C2.91667 3.74792 3.745 2.91375 4.76875 2.91375C5.7925 2.91375 6.62083 3.74792 6.62083 4.78042C6.62083 5.81292 5.7925 6.64708 4.76875 6.64708ZM18.0833 18.0833H14.9683V12.775C14.9683 11.3196 14.4142 10.5058 13.265 10.5058C12.0108 10.5058 11.3575 11.3517 11.3575 12.775V18.0833H8.35333V7.97125H11.3575V9.33333C11.3575 9.33333 12.2617 7.66208 14.4054 7.66208C16.5492 7.66208 18.0862 8.97167 18.0862 11.6812V18.0833H18.0833Z" fill="var(--fill-0, #FAF8F5)" style="fill:#FAF8F5;fill:color(display-p3 0.9804 0.9725 0.9608);fill-opacity:1;"/>
</svg>
