<svg preserveAspectRatio="xMidYMid meet" width="128" height="26" overflow="visible" style="display: block;" viewBox="0 0 128.341 26.0036" fill="none" xmlns="http://www.w3.org/2000/svg">
<g id="Layer_1" clip-path="url(#clip0_0_4)">
<path id="Vector" d="M23.222 11.0447H15.0357V25.881H23.222V11.0447Z" fill="var(--fill-0, #FAF8F5)" style="fill:#FAF8F5;fill:color(display-p3 0.9804 0.9725 0.9608);fill-opacity:1;"/>
<path id="Vector_2" d="M33.7462 -1.0072e-05H18.7003V7.4243H33.7337V-1.0072e-05H33.7462Z" fill="var(--fill-0, #FAF8F5)" style="fill:#FAF8F5;fill:color(display-p3 0.9804 0.9725 0.9608);fill-opacity:1;"/>
<path id="Vector_3" d="M15.0327 3.62007H-0.000648111V11.0444H15.0327V3.62007Z" fill="var(--fill-0, #FAF8F5)" style="fill:#FAF8F5;fill:color(display-p3 0.9804 0.9725 0.9608);fill-opacity:1;"/>
<path id="Vector_4" d="M112.946 8.45016H109.767V25.9918H112.808V14.4415H112.946L118.992 25.9918H119.142L125.213 14.4415H125.338V25.9918H128.342V8.45016H125.426L119.23 20.3587H119.13L112.946 8.45016ZM43.9379 25.9918H46.9796V11.0567H54.9532V8.45016H46.9921V11.0567H37.6041V13.6632H43.9379V25.9918ZM70.4997 8.45016V10.8096H76.2327V26.0042H79.2744V10.8096H84.9948V8.45016H70.4997ZM101.756 21.8658C101.806 22.6441 101.192 23.3235 100.404 23.3729H93.6318C93.2187 23.3976 92.8182 23.2494 92.5303 22.9529C92.2424 22.6688 92.0922 22.2735 92.1172 21.8658V8.45016H89.0755V21.7299C89.0755 24.2623 90.8279 25.9918 93.394 25.9918H100.504C103.07 25.9918 104.822 24.2623 104.822 21.7299V8.45016H101.768V21.8658H101.756ZM64.3036 18.9381H58.3829L61.2995 11.872H61.3996L64.3036 18.9381ZM63.0143 8.4378H59.8725L52.4872 25.9794H55.4539L57.2814 21.5446H65.3801L67.2077 25.9794H70.3745L63.0143 8.4378Z" fill="var(--fill-0, #FAF8F5)" style="fill:#FAF8F5;fill:color(display-p3 0.9804 0.9725 0.9608);fill-opacity:1;"/>
</g>
<defs>
<clipPath id="clip0_0_4">
<rect width="128.341" height="26.0036" fill="white" style="fill:white;fill-opacity:1;"/>
</clipPath>
</defs>
</svg>
