<svg preserveAspectRatio="none" width="100%" height="100%" overflow="visible" style="display: block;" viewBox="0 0 72 72" fill="none" xmlns="http://www.w3.org/2000/svg">
<g id="Layer_1" clip-path="url(#clip0_0_4)">
<path id="Vector" d="M9.43 35.17C8.88 35.17 8.43 35.62 8.43 36.17C8.43 36.72 8.88 37.17 9.43 37.17C9.98 37.17 10.43 36.72 10.43 36.17C10.43 35.62 9.98 35.17 9.43 35.17Z" fill="var(--fill-0, #54575A)" style="fill:#54575A;fill:color(display-p3 0.3294 0.3412 0.3529);fill-opacity:1;"/>
<path id="Vector_2" d="M9.43 39.75C8.88 39.75 8.43 40.2 8.43 40.75C8.43 41.3 8.88 41.75 9.43 41.75C9.98 41.75 10.43 41.3 10.43 40.75C10.43 40.2 9.98 39.75 9.43 39.75Z" fill="var(--fill-0, #54575A)" style="fill:#54575A;fill:color(display-p3 0.3294 0.3412 0.3529);fill-opacity:1;"/>
<path id="Vector_3" d="M9.43 44.33C8.88 44.33 8.43 44.78 8.43 45.33C8.43 45.88 8.88 46.33 9.43 46.33C9.98 46.33 10.43 45.88 10.43 45.33C10.43 44.78 9.98 44.33 9.43 44.33Z" fill="var(--fill-0, #54575A)" style="fill:#54575A;fill:color(display-p3 0.3294 0.3412 0.3529);fill-opacity:1;"/>
<path id="Vector_4" d="M9.43 48.92C8.88 48.92 8.43 49.37 8.43 49.92C8.43 50.47 8.88 50.92 9.43 50.92C9.98 50.92 10.43 50.47 10.43 49.92C10.43 49.37 9.98 48.92 9.43 48.92Z" fill="var(--fill-0, #54575A)" style="fill:#54575A;fill:color(display-p3 0.3294 0.3412 0.3529);fill-opacity:1;"/>
<path id="Vector_5" d="M9.43 21.42C8.88 21.42 8.43 21.87 8.43 22.42C8.43 22.97 8.88 23.42 9.43 23.42C9.98 23.42 10.43 22.97 10.43 22.42C10.43 21.87 9.98 21.42 9.43 21.42Z" fill="var(--fill-0, #54575A)" style="fill:#54575A;fill:color(display-p3 0.3294 0.3412 0.3529);fill-opacity:1;"/>
<path id="Vector_6" d="M9.43 26.01C8.88 26.01 8.43 26.46 8.43 27.01C8.43 27.56 8.88 28.01 9.43 28.01C9.98 28.01 10.43 27.56 10.43 27.01C10.43 26.46 9.98 26.01 9.43 26.01Z" fill="var(--fill-0, #54575A)" style="fill:#54575A;fill:color(display-p3 0.3294 0.3412 0.3529);fill-opacity:1;"/>
<path id="Vector_7" d="M9.43 30.59C8.88 30.59 8.43 31.04 8.43 31.59C8.43 32.14 8.88 32.59 9.43 32.59C9.98 32.59 10.43 32.14 10.43 31.59C10.43 31.04 9.98 30.59 9.43 30.59Z" fill="var(--fill-0, #54575A)" style="fill:#54575A;fill:color(display-p3 0.3294 0.3412 0.3529);fill-opacity:1;"/>
<path id="Vector_8" d="M18.59 35.17C18.04 35.17 17.59 35.62 17.59 36.17C17.59 36.72 18.04 37.17 18.59 37.17C19.14 37.17 19.59 36.72 19.59 36.17C19.59 35.62 19.14 35.17 18.59 35.17Z" fill="var(--fill-0, #54575A)" style="fill:#54575A;fill:color(display-p3 0.3294 0.3412 0.3529);fill-opacity:1;"/>
<path id="Vector_9" d="M14.01 35.17C13.46 35.17 13.01 35.62 13.01 36.17C13.01 36.72 13.46 37.17 14.01 37.17C14.56 37.17 15.01 36.72 15.01 36.17C15.01 35.62 14.56 35.17 14.01 35.17Z" fill="var(--fill-0, #54575A)" style="fill:#54575A;fill:color(display-p3 0.3294 0.3412 0.3529);fill-opacity:1;"/>
<path id="Vector_10" d="M62.73 35.17C62.18 35.17 61.73 35.62 61.73 36.17C61.73 36.72 62.18 37.17 62.73 37.17C63.28 37.17 63.73 36.72 63.73 36.17C63.73 35.62 63.28 35.17 62.73 35.17Z" fill="var(--fill-0, #54575A)" style="fill:#54575A;fill:color(display-p3 0.3294 0.3412 0.3529);fill-opacity:1;"/>
<path id="Vector_11" d="M62.73 30.59C62.18 30.59 61.73 31.04 61.73 31.59C61.73 32.14 62.18 32.59 62.73 32.59C63.28 32.59 63.73 32.14 63.73 31.59C63.73 31.04 63.28 30.59 62.73 30.59Z" fill="var(--fill-0, #54575A)" style="fill:#54575A;fill:color(display-p3 0.3294 0.3412 0.3529);fill-opacity:1;"/>
<path id="Vector_12" d="M62.73 26.01C62.18 26.01 61.73 26.46 61.73 27.01C61.73 27.56 62.18 28.01 62.73 28.01C63.28 28.01 63.73 27.56 63.73 27.01C63.73 26.46 63.28 26.01 62.73 26.01Z" fill="var(--fill-0, #54575A)" style="fill:#54575A;fill:color(display-p3 0.3294 0.3412 0.3529);fill-opacity:1;"/>
<path id="Vector_13" d="M62.73 21.42C62.18 21.42 61.73 21.87 61.73 22.42C61.73 22.97 62.18 23.42 62.73 23.42C63.28 23.42 63.73 22.97 63.73 22.42C63.73 21.87 63.28 21.42 62.73 21.42Z" fill="var(--fill-0, #54575A)" style="fill:#54575A;fill:color(display-p3 0.3294 0.3412 0.3529);fill-opacity:1;"/>
<path id="Vector_14" d="M62.73 48.92C62.18 48.92 61.73 49.37 61.73 49.92C61.73 50.47 62.18 50.92 62.73 50.92C63.28 50.92 63.73 50.47 63.73 49.92C63.73 49.37 63.28 48.92 62.73 48.92Z" fill="var(--fill-0, #54575A)" style="fill:#54575A;fill:color(display-p3 0.3294 0.3412 0.3529);fill-opacity:1;"/>
<path id="Vector_15" d="M62.73 44.33C62.18 44.33 61.73 44.78 61.73 45.33C61.73 45.88 62.18 46.33 62.73 46.33C63.28 46.33 63.73 45.88 63.73 45.33C63.73 44.78 63.28 44.33 62.73 44.33Z" fill="var(--fill-0, #54575A)" style="fill:#54575A;fill:color(display-p3 0.3294 0.3412 0.3529);fill-opacity:1;"/>
<path id="Vector_16" d="M62.73 39.75C62.18 39.75 61.73 40.2 61.73 40.75C61.73 41.3 62.18 41.75 62.73 41.75C63.28 41.75 63.73 41.3 63.73 40.75C63.73 40.2 63.28 39.75 62.73 39.75Z" fill="var(--fill-0, #54575A)" style="fill:#54575A;fill:color(display-p3 0.3294 0.3412 0.3529);fill-opacity:1;"/>
<path id="Vector_17" d="M53.57 35.17C53.02 35.17 52.57 35.62 52.57 36.17C52.57 36.72 53.02 37.17 53.57 37.17C54.12 37.17 54.57 36.72 54.57 36.17C54.57 35.62 54.12 35.17 53.57 35.17Z" fill="var(--fill-0, #54575A)" style="fill:#54575A;fill:color(display-p3 0.3294 0.3412 0.3529);fill-opacity:1;"/>
<path id="Vector_18" d="M58.15 35.17C57.6 35.17 57.15 35.62 57.15 36.17C57.15 36.72 57.6 37.17 58.15 37.17C58.7 37.17 59.15 36.72 59.15 36.17C59.15 35.62 58.7 35.17 58.15 35.17Z" fill="var(--fill-0, #54575A)" style="fill:#54575A;fill:color(display-p3 0.3294 0.3412 0.3529);fill-opacity:1;"/>
<path id="Vector_19" d="M47.6 24.4V47.59H24.41V24.4H47.6ZM48.6 23.4H23.41V48.59H48.6V23.4Z" fill="var(--fill-0, #FAF8F5)" style="fill:#FAF8F5;fill:color(display-p3 0.9804 0.9725 0.9608);fill-opacity:1;"/>
<path id="Vector_20" d="M36 30.86L41.14 36L36 41.14L30.86 36L36 30.86ZM36 29.45L29.45 36L36 42.55L42.55 36L36 29.45Z" fill="var(--fill-0, #FAF8F5)" style="fill:#FAF8F5;fill:color(display-p3 0.9804 0.9725 0.9608);fill-opacity:1;"/>
<path id="Vector_21" d="M17.43 54.57V71H1V54.57H17.43ZM18.43 53.57H0V72H18.43V53.57Z" fill="var(--fill-0, #FAF8F5)" style="fill:#FAF8F5;fill:color(display-p3 0.9804 0.9725 0.9608);fill-opacity:1;"/>
<path id="Vector_22" d="M17.43 1V17.43H1V1H17.43ZM18.43 0H0V18.43H18.43V0Z" fill="var(--fill-0, #FAF8F5)" style="fill:#FAF8F5;fill:color(display-p3 0.9804 0.9725 0.9608);fill-opacity:1;"/>
<path id="Vector_23" d="M71 54.57V71H54.57V54.57H71ZM72 53.57H53.57V72H72V53.57Z" fill="var(--fill-0, #FAF8F5)" style="fill:#FAF8F5;fill:color(display-p3 0.9804 0.9725 0.9608);fill-opacity:1;"/>
<path id="Vector_24" d="M71 1V17.43H54.57V1H71ZM72 0H53.57V18.43H72V0Z" fill="var(--fill-0, #FAF8F5)" style="fill:#FAF8F5;fill:color(display-p3 0.9804 0.9725 0.9608);fill-opacity:1;"/>
<path id="Vector_25" d="M5.25 66.75L13.19 58.81" stroke="var(--stroke-0, #FAF8F5)" style="stroke:#FAF8F5;stroke:color(display-p3 0.9804 0.9725 0.9608);stroke-opacity:1;" stroke-miterlimit="10"/>
<path id="Vector_26" d="M13.19 66.75L5.25 58.81" stroke="var(--stroke-0, #FAF8F5)" style="stroke:#FAF8F5;stroke:color(display-p3 0.9804 0.9725 0.9608);stroke-opacity:1;" stroke-miterlimit="10"/>
<path id="Vector_27" d="M58.81 13.19L66.75 5.25" stroke="var(--stroke-0, #FAF8F5)" style="stroke:#FAF8F5;stroke:color(display-p3 0.9804 0.9725 0.9608);stroke-opacity:1;" stroke-miterlimit="10"/>
<path id="Vector_28" d="M67.62 59.06L60.82 65.85L58.15 63.18" stroke="var(--stroke-0, #FAF8F5)" style="stroke:#FAF8F5;stroke:color(display-p3 0.9804 0.9725 0.9608);stroke-opacity:1;" stroke-miterlimit="10"/>
<path id="Vector_29" d="M14.16 5.61L7.37 12.4L4.7 9.73" stroke="var(--stroke-0, #FAF8F5)" style="stroke:#FAF8F5;stroke:color(display-p3 0.9804 0.9725 0.9608);stroke-opacity:1;" stroke-miterlimit="10"/>
<path id="Vector_30" d="M66.75 13.19L58.81 5.25" stroke="var(--stroke-0, #FAF8F5)" style="stroke:#FAF8F5;stroke:color(display-p3 0.9804 0.9725 0.9608);stroke-opacity:1;" stroke-miterlimit="10"/>
</g>
<defs>
<clipPath id="clip0_0_4">
<rect width="72" height="72" fill="white" style="fill:white;fill-opacity:1;"/>
</clipPath>
</defs>
</svg>
