<svg preserveAspectRatio="none" width="100%" height="100%" overflow="visible" style="display: block;" viewBox="0 0 144 25.009" fill="none" xmlns="http://www.w3.org/2000/svg">
<g id="logo">
<path id="Vector" d="M47.0279 0.162221C46.9199 0.0540736 46.7759 0 46.6229 0H37.8924C37.7394 0 37.5954 0.0630858 37.4873 0.162221L29.8819 7.75955C29.7739 7.8677 29.7199 8.0119 29.7199 8.16511V24.5494C29.7199 24.7927 29.9179 24.991 30.1609 24.991H33.7341C33.9771 24.991 34.1751 24.7927 34.1751 24.5494V15.3298C34.1751 14.8792 34.5442 14.5097 34.9942 14.5097H49.5301C49.9801 14.5097 50.3491 14.8792 50.3491 15.3298V24.5494C50.3491 24.7927 50.5472 24.991 50.7902 24.991H54.3634C54.6064 24.991 54.8044 24.7927 54.8044 24.5494V8.16511C54.8044 8.0119 54.7414 7.8677 54.6424 7.75955L47.0279 0.162221ZM50.3581 9.24658C50.3581 9.69719 49.9891 10.0667 49.5391 10.0667H35.0032C34.5532 10.0667 34.1841 9.69719 34.1841 9.24658V5.27217C34.1841 4.82156 34.5532 4.45205 35.0032 4.45205H49.5391C49.9891 4.45205 50.3581 4.82156 50.3581 5.27217V9.24658ZM81.1221 20.5479H65.7941C65.3441 20.5479 64.9751 20.1784 64.9751 19.7278V0.441601C64.9751 0.19827 64.777 0 64.534 0H60.9608C60.7178 0 60.5198 0.19827 60.5198 0.441601V16.8259C60.5198 16.9791 60.5828 17.1233 60.6818 17.2314L68.2873 24.8288C68.3953 24.9369 68.5393 24.991 68.6923 24.991H81.1131C81.3561 24.991 81.5541 24.7927 81.5541 24.5494V20.9805C81.5541 20.7372 81.3561 20.5389 81.1131 20.5389L81.1221 20.5479ZM27.0197 0H17.8661C17.7131 0 17.5691 0.0630858 17.4611 0.162221L14.2389 3.3796C13.9599 3.65898 13.5188 3.65898 13.2398 3.3796L9.99962 0.162221C9.89162 0.0540736 9.74761 0 9.5946 0H0.441028C0.198012 0 0 0.19827 0 0.441601V4.01045C0 4.25379 0.198012 4.45205 0.441028 4.45205H11.0887C11.3227 4.45205 11.5117 4.64131 11.5117 4.87563V24.5674C11.5117 24.8107 11.7097 25.009 11.9527 25.009H15.526C15.769 25.009 15.967 24.8107 15.967 24.5674V4.86662C15.967 4.6323 16.156 4.44304 16.39 4.44304H27.0377C27.2807 4.44304 27.4787 4.24477 27.4787 4.00144V0.441601C27.4787 0.19827 27.2807 0 27.0377 0H27.0197ZM108.817 0H105.244C105.001 0 104.803 0.19827 104.803 0.441601V19.7278C104.803 20.1784 104.434 20.5479 103.983 20.5479H89.4476C88.9976 20.5479 88.6285 20.1784 88.6285 19.7278V0.441601C88.6285 0.19827 88.4305 0 88.1875 0H84.6143C84.3713 0 84.1733 0.19827 84.1733 0.441601V16.8259C84.1733 16.9791 84.2363 17.1233 84.3353 17.2314L91.9407 24.8288C92.0488 24.9369 92.1928 24.991 92.3458 24.991H101.076C101.229 24.991 101.373 24.9279 101.481 24.8288L109.087 17.2314C109.195 17.1233 109.249 16.9791 109.249 16.8259V0.441601C109.249 0.19827 109.051 0 108.808 0H108.817ZM131.246 10.3731C131.138 10.265 130.994 10.2109 130.841 10.2109H119.419C118.969 10.2109 118.6 9.84138 118.6 9.39077V5.29019C118.6 4.83057 118.969 4.45205 119.437 4.45205H133.91C134.36 4.45205 134.729 4.82156 134.729 5.27217V7.81363C134.729 8.05696 134.927 8.25523 135.17 8.25523H138.744C138.987 8.25523 139.185 8.05696 139.185 7.81363V4.31687C139.185 4.16366 139.131 4.01947 139.023 3.91132L135.278 0.171233C135.17 0.0630858 135.026 0.00901226 134.873 0.00901226H118.357C118.204 0.00901226 118.06 0.0720981 117.952 0.171233L114.325 3.79416C114.217 3.90231 114.163 4.0465 114.163 4.19971V6.30858C114.163 6.46179 114.226 6.60598 114.325 6.71413L122.12 14.5007C122.228 14.6089 122.372 14.6629 122.525 14.6629H133.973C134.423 14.6629 134.792 15.0324 134.792 15.4831V19.7368C134.792 20.1875 134.423 20.557 133.973 20.557H119.437C118.987 20.557 118.618 20.1875 118.618 19.7368V17.1413C118.618 16.898 118.42 16.6997 118.177 16.6997H114.604C114.361 16.6997 114.163 16.898 114.163 17.1413V20.8093C114.163 20.9625 114.226 21.1067 114.325 21.2149L117.952 24.8378C118.06 24.9459 118.204 25 118.357 25H134.873C135.026 25 135.17 24.9369 135.278 24.8378L139.086 21.0436C139.194 20.9355 139.248 20.7913 139.248 20.6381V18.6013C139.248 18.4481 139.185 18.3039 139.086 18.1957L131.264 10.3821L131.246 10.3731ZM142.479 0C141.642 0 140.958 0.684932 140.958 1.52307C140.958 2.36121 141.642 3.04614 142.479 3.04614C143.316 3.04614 144 2.36121 144 1.52307C144 0.684932 143.316 0 142.479 0ZM142.479 2.76676C141.795 2.76676 141.237 2.208 141.237 1.52307C141.237 0.83814 141.795 0.27938 142.479 0.27938C143.163 0.27938 143.721 0.83814 143.721 1.52307C143.721 2.208 143.163 2.76676 142.479 2.76676ZM143.073 1.62221C143.163 1.57714 143.235 1.52307 143.262 1.45999C143.298 1.3969 143.316 1.3248 143.316 1.2527C143.316 1.16258 143.298 1.09048 143.253 1.00937C143.208 0.937275 143.145 0.874189 143.046 0.820115C142.956 0.766042 142.839 0.748017 142.695 0.748017H142.074C142.074 0.748017 142.02 0.75703 141.993 0.784066L141.75 1.0274C141.75 1.0274 141.714 1.07246 141.714 1.10851V2.16294H142.056V1.81146C142.056 1.81146 142.056 1.79344 142.065 1.78443C142.065 1.78443 142.083 1.77541 142.092 1.77541H142.686C142.758 1.77541 142.821 1.78443 142.857 1.81146C142.893 1.8385 142.92 1.87455 142.938 1.92862C142.956 1.9827 142.965 2.06381 142.983 2.17195H143.325C143.325 2.04578 143.298 1.93764 143.271 1.84751C143.235 1.75739 143.172 1.68529 143.073 1.64023V1.62221ZM142.902 1.40591C142.902 1.40591 142.794 1.45999 142.686 1.45999H142.101C142.101 1.45999 142.083 1.45999 142.074 1.45097C142.074 1.45097 142.065 1.43295 142.065 1.42394V1.10851C142.065 1.10851 142.065 1.09048 142.074 1.08147C142.074 1.08147 142.092 1.07246 142.101 1.07246H142.686C142.794 1.07246 142.857 1.09048 142.902 1.12653C142.947 1.16258 142.956 1.20764 142.956 1.27073C142.956 1.33381 142.938 1.38789 142.893 1.42394L142.902 1.40591Z" fill="var(--fill-0, #FAF8F5)" style="fill:#FAF8F5;fill:color(display-p3 0.9804 0.9725 0.9608);fill-opacity:1;"/>
</g>
</svg>
