<svg width="149.417" height="30.25" overflow="visible" style="display: block;" viewBox="0 0 149.417 30.25" fill="none" xmlns="http://www.w3.org/2000/svg">
<g id="Layer_1" clip-path="url(#clip0_0_4)">
<path id="Vector" d="M27.0355 12.8483H17.5048V30.1073H27.0355V12.8483Z" fill="var(--fill-0, #FAF8F5)" style="fill:#FAF8F5;fill:color(display-p3 0.9804 0.9725 0.9608);fill-opacity:1;"/>
<path id="Vector_2" d="M39.288 -1.17167e-05H21.7713V8.63669H39.2734V-1.17167e-05H39.288Z" fill="var(--fill-0, #FAF8F5)" style="fill:#FAF8F5;fill:color(display-p3 0.9804 0.9725 0.9608);fill-opacity:1;"/>
<path id="Vector_3" d="M17.5014 4.21122H-0.000754544V12.8479H17.5014V4.21122Z" fill="var(--fill-0, #FAF8F5)" style="fill:#FAF8F5;fill:color(display-p3 0.9804 0.9725 0.9608);fill-opacity:1;"/>
<path id="Vector_4" d="M131.494 9.83006H127.793V30.2362H131.334V16.7998H131.494L138.533 30.2362H138.708L145.776 16.7998H145.921V30.2362H149.419V9.83006H146.023L138.81 23.6833H138.693L131.494 9.83006ZM51.1534 30.2362H54.6946V12.8622H63.9776V9.83006H54.7092V12.8622H43.7795V15.8944H51.1534V30.2362ZM82.0772 9.83006V12.5748H88.7516V30.2506H92.2929V12.5748H98.9527V9.83006H82.0772ZM118.466 25.4365C118.524 26.3418 117.81 27.1322 116.892 27.1897H109.008C108.527 27.2184 108.061 27.046 107.726 26.7011C107.39 26.3706 107.216 25.9107 107.245 25.4365V9.83006H103.704V25.2784C103.704 28.2244 105.744 30.2362 108.731 30.2362H117.009C119.996 30.2362 122.036 28.2244 122.036 25.2784V9.83006H118.48V25.4365H118.466ZM74.8636 22.0307H67.9706L71.3661 13.8107H71.4827L74.8636 22.0307ZM73.3626 9.81569H69.7048L61.1067 30.2219H64.5605L66.6882 25.0628H76.1169L78.2445 30.2219H81.9315L73.3626 9.81569Z" fill="var(--fill-0, #FAF8F5)" style="fill:#FAF8F5;fill:color(display-p3 0.9804 0.9725 0.9608);fill-opacity:1;"/>
</g>
<defs>
<clipPath id="clip0_0_4">
<rect width="149.417" height="30.25" fill="white" style="fill:white;fill-opacity:1;"/>
</clipPath>
</defs>
</svg>
