<svg preserveAspectRatio="xMidYMid meet" width="162" height="35" overflow="visible" style="display: block;" viewBox="0 0 162.473 34.8618" fill="none" xmlns="http://www.w3.org/2000/svg">
<g id="Layer_1" clip-path="url(#clip0_0_4)">
<path id="Vector" d="M156.264 13.3278C156.199 13.3278 156.176 13.2864 156.193 13.2332L157.876 8.36477C157.887 8.32336 157.935 8.2997 157.976 8.2997H159.263C159.304 8.2997 159.351 8.32336 159.363 8.36477L161.045 13.2332C161.057 13.2805 161.039 13.3278 160.974 13.3278H159.965C159.924 13.3278 159.888 13.3042 159.87 13.2568L159.599 12.3636H157.616L157.344 13.2568C157.333 13.2982 157.297 13.3278 157.25 13.3278H156.264ZM157.899 11.4704H159.327L158.631 9.22251H158.596L157.899 11.4704Z" fill="var(--fill-0, #FAF8F5)" style="fill:#FAF8F5;fill:color(display-p3 0.9804 0.9725 0.9608);fill-opacity:1;"/>
<path id="Vector_2" d="M161.368 13.3278C161.309 13.3278 161.28 13.2982 161.28 13.239V8.38246C161.28 8.32331 161.309 8.29373 161.368 8.29373H162.395C162.442 8.29373 162.472 8.32331 162.472 8.38246V13.239C162.472 13.2982 162.442 13.3278 162.395 13.3278H161.368Z" fill="var(--fill-0, #FAF8F5)" style="fill:#FAF8F5;fill:color(display-p3 0.9804 0.9725 0.9608);fill-opacity:1;"/>
<path id="Vector_3" fill-rule="evenodd" clip-rule="evenodd" d="M17.275 0.000236291C17.3813 0.000236291 17.4875 0.000236291 17.5937 0.000236291H34.6095C34.7157 0.000236291 34.822 0.000236291 34.9282 0.000236291C35.6837 -0.0115946 36.4156 0.0475598 37.1179 0.1777C45.5461 1.39628 52.0207 8.66636 52.0207 17.4508C52.0207 26.2352 45.5461 33.5053 37.1179 34.7239C36.4156 34.854 35.6837 34.9132 34.9282 34.9013C34.822 34.9013 34.7157 34.9013 34.6095 34.9013H17.5937C17.4875 34.9013 17.3813 34.9013 17.275 34.9013C16.5196 34.9132 15.7877 34.854 15.0854 34.7239C6.65715 33.5053 0.182546 26.2352 0.182546 17.4508C0.182546 8.66636 6.65715 1.4022 15.0854 0.1777C15.7877 0.0475598 16.5196 -0.00567915 17.275 0.000236291ZM15.5634 2.8219C16.1536 2.73909 16.7497 2.69176 17.3577 2.68585C18.4437 2.71542 19.6654 2.92246 21.0052 3.33654C21.4832 3.48443 21.9672 3.65598 22.4571 3.84527C22.8525 3.99907 22.8938 4.53146 22.5515 4.774C20.8635 5.96892 19.205 7.36496 17.6292 8.9503C16.0533 10.5297 14.6604 12.1979 13.4682 13.8838C13.2262 14.2269 12.695 14.1855 12.5415 13.7891C12.3468 13.2981 12.1815 12.8131 12.034 12.3398C10.889 8.58354 11.3139 5.73821 12.8721 4.17654C13.539 3.50218 14.4479 3.04077 15.5634 2.82782V2.8219ZM8.81142 6.88581C8.88224 6.37708 8.29794 5.98075 7.9084 6.31793C5.27016 8.62495 3.45821 11.8666 2.98014 15.5224C2.93883 15.8359 3.18672 16.108 3.49953 16.108H9.77936C10.1689 16.108 10.4286 15.6998 10.2751 15.339C9.96233 14.5936 9.69083 13.8483 9.46655 13.1207C8.81142 10.9675 8.53992 8.82016 8.79962 6.88581H8.81142ZM10.2869 19.5567C10.4404 19.1958 10.1807 18.7877 9.79117 18.7877H3.50543C3.19262 18.7877 2.94473 19.0598 2.98604 19.3733C3.46412 23.029 5.27016 26.2707 7.9143 28.5777C8.29794 28.9149 8.88224 28.5186 8.81732 28.0098C8.55763 26.0755 8.82322 23.9282 9.48426 21.775C9.70854 21.0474 9.97413 20.302 10.2928 19.5567H10.2869ZM17.3577 32.2157C16.7497 32.2039 16.1477 32.1625 15.5634 32.0797C14.4479 31.8608 13.5449 31.3994 12.8721 30.7309C11.3139 29.1693 10.889 26.3239 12.034 22.5676C12.1815 22.0944 12.3468 21.6093 12.5415 21.1184C12.695 20.722 13.2262 20.6747 13.4682 21.0237C14.6545 22.7155 16.0474 24.3778 17.6292 25.9572C19.205 27.5425 20.8694 28.9386 22.5515 30.1335C22.8938 30.376 22.8466 30.9084 22.4571 31.0622C21.9672 31.2574 21.4832 31.429 21.0052 31.5709C19.6654 31.985 18.4437 32.1921 17.3577 32.2216V32.2157ZM29.6517 30.1276C29.3094 30.3701 29.3566 30.9025 29.7462 31.0563C30.236 31.2515 30.72 31.4231 31.1981 31.565C32.5379 31.9791 33.7596 32.1861 34.8456 32.2157C35.4535 32.2039 36.0555 32.1625 36.6398 32.0797C37.7553 31.8608 38.6584 31.3994 39.3312 30.7309C40.8893 29.1693 41.3143 26.3239 40.1693 22.5676C40.0217 22.0944 39.8565 21.6093 39.6617 21.1184C39.5083 20.722 38.9771 20.6747 38.7351 21.0237C37.5488 22.7155 36.1559 24.3778 34.5741 25.9572C32.9982 27.5425 31.3338 28.9386 29.6517 30.1335V30.1276ZM42.418 18.7936C42.0284 18.7936 41.7688 19.2018 41.9222 19.5626C42.235 20.3079 42.5065 21.0533 42.7308 21.7809C43.3859 23.9341 43.6574 26.0814 43.3977 28.0158C43.3269 28.5245 43.9112 28.9208 44.3008 28.5836C46.939 26.2766 48.7509 23.035 49.229 19.3792C49.2703 19.0657 49.0224 18.7936 48.7096 18.7936H42.4298H42.418ZM48.6978 16.108C49.0106 16.108 49.2585 15.8359 49.2172 15.5224C48.7391 11.8666 46.9331 8.62495 44.289 6.31793C43.9053 5.98075 43.321 6.37708 43.3859 6.88581C43.6456 8.82016 43.38 10.9675 42.719 13.1207C42.4947 13.8483 42.2291 14.5936 41.9104 15.339C41.757 15.6998 42.0166 16.108 42.4062 16.108H48.686H48.6978ZM38.7351 13.8838C38.9771 14.2269 39.5083 14.1855 39.6617 13.7891C39.8565 13.2981 40.0217 12.8131 40.1693 12.3398C41.3143 8.58354 40.8893 5.73821 39.3312 4.17654C38.6643 3.50218 37.7553 3.04077 36.6398 2.82782C36.0496 2.745 35.4535 2.69768 34.8456 2.69176C33.7596 2.72134 32.5379 2.92838 31.1981 3.34246C30.72 3.49035 30.236 3.66189 29.7462 3.85119C29.3507 4.00499 29.3094 4.53738 29.6517 4.77991C31.3397 5.97483 32.9982 7.37087 34.5741 8.95621C36.15 10.5356 37.5429 12.2038 38.7351 13.8897V13.8838ZM26.3761 5.82103C26.2108 5.72047 25.9983 5.72047 25.8272 5.82103C23.7024 7.12243 21.5541 8.80833 19.5237 10.8432C18.0895 12.2807 16.8324 13.7773 15.7641 15.2798C15.5162 15.6288 15.7641 16.108 16.1949 16.108H36.0083C36.4333 16.108 36.687 15.6288 36.4392 15.2798C35.3709 13.7773 34.1078 12.2807 32.6795 10.8432C30.6492 8.80241 28.4949 7.11651 26.3761 5.82103ZM36.4451 19.6158C36.6929 19.2668 36.4451 18.7877 36.0142 18.7877H16.1949C15.77 18.7877 15.5162 19.2668 15.7641 19.6158C16.8324 21.1184 18.0954 22.615 19.5237 24.0524C21.5541 26.0932 23.7083 27.7791 25.8272 29.0746C25.9924 29.1752 26.2049 29.1752 26.3761 29.0746C28.5008 27.7732 30.6492 26.0873 32.6795 24.0524C34.1137 22.615 35.3709 21.1184 36.4392 19.6158H36.4451Z" fill="var(--fill-0, #FAF8F5)" style="fill:#FAF8F5;fill:color(display-p3 0.9804 0.9725 0.9608);fill-opacity:1;"/>
<path id="Vector_4" d="M145.756 27.3474C145.621 27.3474 145.508 27.2941 145.455 27.1285L140.214 13.6531C140.132 13.4579 140.214 13.3218 140.409 13.3218H143.018C143.153 13.3218 143.289 13.3751 143.348 13.5407L147.409 24.8451H147.521L151.582 13.5407C151.635 13.3751 151.776 13.3218 151.912 13.3218H154.409C154.598 13.3218 154.68 13.4579 154.598 13.6531L149.357 27.1285C149.303 27.2941 149.191 27.3474 149.056 27.3474H145.762H145.756Z" fill="var(--fill-0, #FAF8F5)" style="fill:#FAF8F5;fill:color(display-p3 0.9804 0.9725 0.9608);fill-opacity:1;"/>
<path id="Vector_5" d="M131.393 27.3473C128.814 27.3473 127.415 25.9453 127.415 23.3603V9.47671C127.415 9.31108 127.527 9.2046 127.692 9.2046H130.189C130.354 9.2046 130.46 9.317 130.46 9.47671V13.3277H133.836C134.002 13.3277 134.108 13.4401 134.108 13.5998V15.4691C134.108 15.6347 133.996 15.7412 133.836 15.7412H130.46V24.9278H133.836C134.002 24.9278 134.108 25.0402 134.108 25.2V27.0692C134.108 27.2349 133.996 27.3413 133.836 27.3413H131.393V27.3473Z" fill="var(--fill-0, #FAF8F5)" style="fill:#FAF8F5;fill:color(display-p3 0.9804 0.9725 0.9608);fill-opacity:1;"/>
<path id="Vector_6" d="M119.488 27.5133C115.209 27.5133 112.435 24.7094 112.435 20.3615C112.435 16.0137 115.292 13.1565 119.488 13.1565C122.917 13.1565 125.331 15.0791 125.744 17.9658C125.774 18.161 125.632 18.2675 125.467 18.2675H123.053C122.858 18.2675 122.805 18.1847 122.752 17.9954C122.392 16.3745 121.271 15.6292 119.488 15.6292C116.992 15.6292 115.54 17.4452 115.54 20.3615C115.54 23.2779 117.021 25.0347 119.488 25.0347C121.383 25.0347 122.451 24.3486 122.888 22.6449C122.917 22.4793 123.024 22.3965 123.189 22.3965H125.603C125.768 22.3965 125.904 22.4793 125.874 22.6449C125.408 25.5612 123.047 27.5133 119.482 27.5133H119.488Z" fill="var(--fill-0, #FAF8F5)" style="fill:#FAF8F5;fill:color(display-p3 0.9804 0.9725 0.9608);fill-opacity:1;"/>
<path id="Vector_7" d="M104.952 27.5133C100.643 27.5133 97.8749 24.7094 97.8749 20.3615C97.8749 16.0137 100.643 13.1565 104.952 13.1565C108.93 13.1565 111.397 15.9072 111.397 20.332V21.0773C111.397 21.2429 111.285 21.3494 111.125 21.3494H101.003C101.221 23.6564 102.597 25.0347 104.952 25.0347C106.817 25.0347 107.944 24.319 108.328 23.1655C108.381 22.9998 108.463 22.9466 108.629 22.9466H111.043C111.237 22.9466 111.344 23.0294 111.314 23.1655C110.818 25.7209 108.546 27.5074 104.952 27.5074V27.5133ZM101.027 19.1252H108.404C108.269 16.9543 106.952 15.6351 104.946 15.6351C102.644 15.6351 101.298 16.8478 101.021 19.1252H101.027Z" fill="var(--fill-0, #FAF8F5)" style="fill:#FAF8F5;fill:color(display-p3 0.9804 0.9725 0.9608);fill-opacity:1;"/>
<path id="Vector_8" d="M95.9804 27.3472C93.4012 27.3472 92.0024 25.9452 92.0024 23.3602V7.82624C92.0024 7.66061 92.1146 7.55413 92.2739 7.55413H94.7705C94.9358 7.55413 95.042 7.66652 95.042 7.82624V24.9278H97.5917C97.757 24.9278 97.8691 25.0402 97.8691 25.1999V27.0692C97.8691 27.2348 97.757 27.3413 97.5917 27.3413H95.9745L95.9804 27.3472Z" fill="var(--fill-0, #FAF8F5)" style="fill:#FAF8F5;fill:color(display-p3 0.9804 0.9725 0.9608);fill-opacity:1;"/>
<path id="Vector_9" d="M84.0522 27.3472C83.8869 27.3472 83.7748 27.2348 83.7748 27.0751V11.5411C83.7748 8.95609 85.1736 7.55413 87.7528 7.55413H90.1962C90.3615 7.55413 90.4677 7.66652 90.4677 7.82624V9.69552C90.4677 9.86115 90.3556 9.96763 90.1962 9.96763H86.8202V13.3217H90.1962C90.3615 13.3217 90.4677 13.4341 90.4677 13.5938V15.4631C90.4677 15.6287 90.3556 15.7352 90.1962 15.7352H86.8202V27.0633C86.8202 27.2289 86.7081 27.3354 86.5488 27.3354H84.0522V27.3472Z" fill="var(--fill-0, #FAF8F5)" style="fill:#FAF8F5;fill:color(display-p3 0.9804 0.9725 0.9608);fill-opacity:1;"/>
<path id="Vector_10" d="M69.4212 27.3477C69.2559 27.3477 69.1497 27.2353 69.1497 27.0756V13.6002C69.1497 13.4346 69.2619 13.3281 69.4212 13.3281H71.782C71.9473 13.3281 72.0594 13.4405 72.0594 13.6002V15.4695H72.1716C73.1572 13.9848 74.6977 13.1625 76.5864 13.1625C79.7676 13.1625 81.5264 15.3335 81.5264 19.4861V27.0756C81.5264 27.2413 81.4202 27.3477 81.2549 27.3477H78.7583C78.5931 27.3477 78.4868 27.2353 78.4868 27.0756V19.4861C78.4868 16.9011 77.5248 15.7476 75.3587 15.7476C73.1927 15.7476 72.2011 16.9306 72.2011 19.4861V27.0756C72.2011 27.2413 72.089 27.3477 71.9296 27.3477H69.433H69.4212Z" fill="var(--fill-0, #FAF8F5)" style="fill:#FAF8F5;fill:color(display-p3 0.9804 0.9725 0.9608);fill-opacity:1;"/>
<path id="Vector_11" d="M64.0906 27.3474C63.9253 27.3474 63.8191 27.235 63.8191 27.0753V13.5999C63.8191 13.4343 63.9313 13.3278 64.0906 13.3278H66.5872C66.7525 13.3278 66.8587 13.4402 66.8587 13.5999V27.0753C66.8587 27.2409 66.7466 27.3474 66.5872 27.3474H64.0906Z" fill="var(--fill-0, #FAF8F5)" style="fill:#FAF8F5;fill:color(display-p3 0.9804 0.9725 0.9608);fill-opacity:1;"/>
<path id="Vector_12" d="M67.0957 9.14571C67.0957 10.1158 66.3107 10.9085 65.3369 10.9085C64.363 10.9085 63.5839 10.1218 63.5839 9.14571C63.5839 8.16966 64.3689 7.38883 65.3369 7.38883C66.3048 7.38883 67.0957 8.17558 67.0957 9.14571Z" fill="var(--fill-0, #FAF8F5)" style="fill:#FAF8F5;fill:color(display-p3 0.9804 0.9725 0.9608);fill-opacity:1;"/>
<path id="Vector_13" d="M136.142 27.3474C135.977 27.3474 135.871 27.235 135.871 27.0753V13.5999C135.871 13.4343 135.983 13.3278 136.142 13.3278H138.639C138.804 13.3278 138.91 13.4402 138.91 13.5999V27.0753C138.91 27.2409 138.798 27.3474 138.639 27.3474H136.142Z" fill="var(--fill-0, #FAF8F5)" style="fill:#FAF8F5;fill:color(display-p3 0.9804 0.9725 0.9608);fill-opacity:1;"/>
<path id="Vector_14" d="M139.146 9.14571C139.146 10.1158 138.361 10.9085 137.388 10.9085C136.414 10.9085 135.629 10.1218 135.629 9.14571C135.629 8.16966 136.414 7.38883 137.388 7.38883C138.361 7.38883 139.146 8.17558 139.146 9.14571Z" fill="var(--fill-0, #FAF8F5)" style="fill:#FAF8F5;fill:color(display-p3 0.9804 0.9725 0.9608);fill-opacity:1;"/>
</g>
<defs>
<clipPath id="clip0_0_4">
<rect width="162.473" height="34.8618" fill="white" style="fill:white;fill-opacity:1;"/>
</clipPath>
</defs>
</svg>
