<svg preserveAspectRatio="none" width="100%" height="100%" overflow="visible" style="display: block;" viewBox="0 0 245 46" fill="none" xmlns="http://www.w3.org/2000/svg">
<g id="Layer_1" clip-path="url(#clip0_0_21)">
<path id="Vector" d="M195.641 11.4903C194.096 11.4903 193.264 12.2878 193.264 13.7209C193.264 15.1539 194.122 16.0358 195.641 16.0358C197.161 16.0358 198.019 15.2058 198.019 13.7209C198.019 12.236 197.161 11.4903 195.641 11.4903ZM206.606 18.0913C202.455 18.0913 199.558 21.0612 199.558 25.4641C199.558 29.8669 202.423 32.6682 206.716 32.6682C209.866 32.6682 212.068 31.4361 213.017 29.011L209.866 27.8697C209.178 29.3547 208.463 29.841 206.801 29.841C204.599 29.841 203.566 28.8683 203.338 26.5275H213.302C213.328 25.9569 213.328 25.6391 213.328 25.1852C213.328 20.8666 210.607 18.0978 206.599 18.0978L206.606 18.0913ZM203.338 24.0375C203.598 21.7809 204.599 20.8342 206.632 20.8342C208.665 20.8342 209.665 21.6642 209.723 24.0375H203.338ZM223.857 18.0913C221.337 18.0913 219.908 19.3752 219.22 21.6383V18.3767H215.582V32.3829H219.22V25.691C219.22 22.8055 220.48 21.3724 222.513 21.3724C224.26 21.3724 225.235 22.3127 225.235 24.1996V32.3764H228.872V23.9986C228.872 20.0561 227.183 18.0784 223.864 18.0784L223.857 18.0913ZM243.285 14.0127C242.337 14.0127 241.57 14.7843 241.57 15.7246C241.57 16.6648 242.343 17.4364 243.285 17.4364C244.227 17.4364 245 16.6648 245 15.7246C245 14.7843 244.227 14.0127 243.285 14.0127ZM243.285 17.0279C242.564 17.0279 241.98 16.4443 241.98 15.7246C241.98 15.0048 242.564 14.4212 243.285 14.4212C244.006 14.4212 244.591 15.0048 244.591 15.7246C244.591 16.4443 244.006 17.0279 243.285 17.0279ZM236.536 14.2007H232.899V18.3767H230.21V21.5799H232.899V28.0383C232.899 30.6386 234.646 32.3829 237.251 32.3829H240.258V29.1796H236.536V21.5734H240.603V18.3702H236.536V14.1942V14.2007ZM243.61 15.8931C243.85 15.8218 243.98 15.6338 243.98 15.3874C243.98 15.0632 243.753 14.8492 243.357 14.8492H242.61V16.5416H243.051V15.9321H243.279L243.506 16.5416H244.019L243.753 16.0423L243.61 15.8996V15.8931ZM243.318 15.5624H243.051V15.2253H243.318C243.48 15.2253 243.539 15.2706 243.539 15.3939C243.539 15.5171 243.48 15.5624 243.318 15.5624ZM100.562 18.0913C96.4112 18.0913 93.5143 21.0612 93.5143 25.4641C93.5143 29.8669 96.3788 32.6682 100.672 32.6682C103.822 32.6682 106.024 31.4361 106.973 29.011L103.822 27.8697C103.134 29.3547 102.419 29.841 100.757 29.841C98.5547 29.841 97.5219 28.8683 97.2946 26.5275H107.259C107.285 25.9569 107.285 25.6391 107.285 25.1852C107.285 20.8666 104.563 18.0978 100.555 18.0978L100.562 18.0913ZM97.2946 24.0375C97.5544 21.7809 98.5547 20.8342 100.588 20.8342C102.621 20.8342 103.621 21.6642 103.68 24.0375H97.2946ZM39.1803 13.9543C38.1475 12.9428 36.777 12.3916 35.3285 12.3916H33.6722V10.7316C33.6722 9.28559 33.1136 7.92388 32.1068 6.88638L26.9949 1.65999C25.9491 0.590076 24.5461 0 23.0522 0C21.5582 0 20.1552 0.590076 19.1095 1.65999L13.9976 6.88638C12.9843 7.91739 12.4322 9.28559 12.4322 10.7316V12.3916H10.7694C9.3209 12.3916 7.95687 12.9493 6.9176 13.9543L1.68231 19.0575C0.610568 20.1015 0.0194862 21.5021 0.0194862 22.9935C0.0194862 24.4914 0.610568 25.8855 1.68231 26.9295L6.9241 32.0327C7.95687 33.0443 9.32739 33.5954 10.7759 33.5954H12.4387V35.2489C12.4387 36.695 12.9973 38.0631 14.0106 39.0942L19.1225 44.327C20.1682 45.397 21.5712 45.987 23.0652 45.987C24.5591 45.987 25.9621 45.397 27.0079 44.327L32.1198 39.0942C33.133 38.0631 33.6851 36.695 33.6851 35.2489V33.5954H35.3415C36.7899 33.5954 38.154 33.0378 39.1932 32.0327L44.435 26.9295C45.5068 25.8855 46.0979 24.4849 46.0979 22.9935C46.0979 21.5021 45.5068 20.1015 44.435 19.0575L39.1932 13.9543H39.1803ZM15.8877 15.8607H17.9468C18.4794 15.8607 18.9861 16.0682 19.3693 16.4378L20.5579 17.592L19.3173 18.7981C19.2459 18.863 19.1679 18.9343 19.0965 19.0121L19.051 19.0575C18.9796 19.1288 18.9081 19.2002 18.8497 19.265L17.6285 20.51L16.4723 19.3234C16.0956 18.9408 15.8942 18.435 15.8942 17.9033V15.8478L15.8877 15.8607ZM15.8877 28.0902C15.8877 27.5585 16.0956 27.0527 16.4658 26.6701L17.622 25.4835L18.8302 26.7155C18.9016 26.7933 18.9731 26.8647 19.0445 26.936L19.09 26.9814C19.1614 27.0527 19.2329 27.124 19.2978 27.1824L20.5514 28.4015L19.3628 29.5557C18.9796 29.9318 18.4729 30.1328 17.9403 30.1328H15.8813V28.0772L15.8877 28.0902ZM13.9781 24.245C12.9648 25.276 12.4127 26.6442 12.4127 28.0902V30.1458H10.7499C10.2173 30.1458 9.71062 29.9383 9.32739 29.5686L4.0921 24.4655C3.69588 24.0764 3.47504 23.5641 3.47504 23.0065C3.47504 22.4488 3.69588 21.9366 4.0921 21.5475L9.32739 16.4443C9.71062 16.0682 10.2173 15.8672 10.7499 15.8672H12.4127V17.9227C12.4127 19.3688 12.9713 20.737 13.9781 21.768L15.1927 23.013L13.9781 24.258V24.245ZM30.1906 35.2684C30.1906 35.8001 29.9828 36.3059 29.6125 36.6885L24.5007 41.9213C24.1109 42.3169 23.5978 42.5374 23.0392 42.5374C22.4806 42.5374 21.9674 42.3169 21.5777 41.9213L16.4658 36.695C16.0891 36.3124 15.8877 35.8066 15.8877 35.2749V33.6214H17.9468C19.3953 33.6214 20.7593 33.0637 21.7986 32.0586L23.0457 30.8461L24.2928 32.0586C25.3321 33.0702 26.6961 33.6214 28.1446 33.6214H30.2036V35.2749L30.1906 35.2684ZM20.7333 23C20.7333 21.7291 21.7661 20.6981 23.0392 20.6981C24.3123 20.6981 25.3451 21.7291 25.3451 23C25.3451 24.2709 24.3123 25.3019 23.0392 25.3019C21.7661 25.3019 20.7333 24.2709 20.7333 23ZM30.1906 30.1393H28.1316C27.599 30.1393 27.0923 29.9318 26.7091 29.5622L25.5204 28.4079L26.761 27.2019C26.8325 27.1305 26.9104 27.0657 26.9754 26.9944L27.0274 26.9425C27.0988 26.8712 27.1703 26.7998 27.2287 26.735L28.4499 25.49L29.606 26.6766C29.9828 27.0592 30.1841 27.565 30.1841 28.0967V30.1522L30.1906 30.1393ZM30.1906 17.9098C30.1906 18.4415 29.9828 18.9473 29.6125 19.3299L28.4563 20.5165L27.2417 19.2715C27.1768 19.2002 27.1053 19.1288 27.0339 19.0575L26.9819 19.0056C26.9104 18.9343 26.8325 18.863 26.7675 18.7981L25.5204 17.5856L26.7091 16.4313C27.0923 16.0553 27.599 15.8542 28.1316 15.8542H30.1906V17.9098ZM30.1906 12.3916H28.1316C26.6831 12.3916 25.3191 12.9493 24.2798 13.9608L23.0327 15.1734L21.7856 13.9608C20.7528 12.9493 19.3823 12.3916 17.9338 12.3916H15.8748V10.7316C15.8748 10.1999 16.0826 9.69411 16.4528 9.31153L21.5647 4.08514C21.9545 3.6896 22.4676 3.46913 23.0262 3.46913C23.5848 3.46913 24.0979 3.6896 24.4877 4.08514L29.5995 9.31153C29.9763 9.69411 30.1776 10.1999 30.1776 10.7316V12.3916H30.1906ZM41.9928 24.459L36.7575 29.5622C36.3742 29.9383 35.8676 30.1393 35.335 30.1393H33.6786V28.0837C33.6786 26.6377 33.12 25.276 32.1133 24.2385L30.8986 22.9935L32.1133 21.7485C33.1265 20.7175 33.6786 19.3493 33.6786 17.9033V15.8478H35.335C35.8676 15.8478 36.3742 16.0553 36.7575 16.4249L41.9928 21.5281C42.389 21.9171 42.6098 22.4294 42.6098 22.987C42.6098 23.5447 42.389 24.0569 41.9928 24.446V24.459ZM169.985 21.5216C169.095 19.3234 167.347 18.0913 164.944 18.0913C161.021 18.0913 158.728 21.0093 158.728 25.4122C158.728 29.8151 161.105 32.6747 165.113 32.6747C167.432 32.6747 169.121 31.475 169.978 29.3287V32.3893H173.616V18.3831H169.978V21.5281L169.985 21.5216ZM166.204 29.3806C163.626 29.3806 162.398 28.0967 162.398 25.4057C162.398 22.7147 163.632 21.3724 166.204 21.3724C168.776 21.3724 170.102 22.6563 170.102 25.4057C170.102 28.1551 168.867 29.3806 166.204 29.3806ZM135.871 24.9258H141.652C141.281 27.8697 138.93 29.413 135.812 29.413C131.318 29.413 128.999 27.0981 128.999 22.3516C128.999 17.8903 131.318 15.5171 135.728 15.5171C138.735 15.5171 140.71 16.8593 141.567 20.2312L145.029 18.7138C144.055 14.486 140.307 12.0803 135.812 12.0803C129.596 12.0803 125.101 16.2822 125.101 22.3451C125.101 28.4079 129.596 32.6617 134.981 32.6617C137.358 32.6617 140.71 31.9484 141.97 28.0319V32.3764H145.263V21.742H135.871V24.9129V24.9258ZM152.142 22.3516V18.3767H148.504V32.3829H152.142V26.5794C152.142 23.0324 153.746 21.4891 156.033 21.4891C156.948 21.4891 157.41 21.5734 157.923 21.7745V18.3442C157.41 18.1432 156.747 18.1432 156.234 18.1432C153.545 18.1432 152.512 20.2312 152.142 22.3451V22.3516ZM117.814 18.0913C115.293 18.0913 113.864 19.3752 113.176 21.6383V18.3767H109.538V32.3829H113.176V25.691C113.176 22.8055 114.436 21.3724 116.469 21.3724C118.216 21.3724 119.191 22.3127 119.191 24.1996V32.3764H122.828V23.9986C122.828 20.0561 121.139 18.0784 117.82 18.0784L117.814 18.0913ZM64.4344 12.0868C58.7639 12.0868 54.1262 16.2303 54.1262 22.3775C54.1262 28.5247 58.7639 32.6682 64.4344 32.6682C70.1049 32.6682 74.7686 28.4663 74.7686 22.3775C74.7686 16.2887 70.1308 12.0868 64.4344 12.0868ZM64.4344 29.2379C60.1994 29.2379 58.0494 26.8906 58.0494 22.3516C58.0494 17.8125 60.1994 15.5171 64.4344 15.5171C68.6694 15.5171 70.8453 17.832 70.8453 22.3516C70.8453 26.8712 68.6953 29.2379 64.4344 29.2379ZM193.842 32.3829H197.48V18.3767H193.842V32.3829ZM187.145 21.5216C186.256 19.3234 184.508 18.0913 182.105 18.0913C178.182 18.0913 175.889 21.0093 175.889 25.4122C175.889 29.8151 178.266 32.6747 182.274 32.6747C184.593 32.6747 186.282 31.475 187.139 29.3287V32.3893H190.776V12.3786H187.139V21.5281L187.145 21.5216ZM183.365 29.3806C180.786 29.3806 179.559 28.0967 179.559 25.4057C179.559 22.7147 180.793 21.3724 183.365 21.3724C185.937 21.3724 187.256 22.6563 187.256 25.4057C187.256 28.1551 186.028 29.3806 183.365 29.3806ZM85.9471 18.0913C83.5698 18.0913 81.7966 19.2909 80.9067 21.4632V18.3767H77.2693V37.2461H80.9067V29.3871C81.7966 31.501 83.4529 32.6747 85.7458 32.6747C89.7534 32.6747 92.1308 29.7567 92.1308 25.4122C92.1308 21.0677 89.8379 18.0913 85.9471 18.0913ZM84.661 29.3806C81.9979 29.3806 80.7703 28.0967 80.7703 25.4057C80.7703 22.7147 81.9979 21.3724 84.661 21.3724C87.3242 21.3724 88.4673 22.6563 88.4673 25.4057C88.4673 28.1551 87.2657 29.3806 84.661 29.3806Z" fill="var(--fill-0, #FAF8F5)" style="fill:#FAF8F5;fill:color(display-p3 0.9804 0.9725 0.9608);fill-opacity:1;"/>
</g>
<defs>
<clipPath id="clip0_0_21">
<rect width="245" height="46" fill="white" style="fill:white;fill-opacity:1;"/>
</clipPath>
</defs>
</svg>
