<svg preserveAspectRatio="xMidYMid meet" width="28" height="21" overflow="visible" style="display: block;" viewBox="0 0 28 21" fill="none" xmlns="http://www.w3.org/2000/svg">
<path id="discord" d="M23.7197 1.75875C21.8794 0.925914 19.9368 0.334974 17.9417 0.000541153C17.671 0.480544 17.4227 0.983276 17.2039 1.48925C16.1424 1.3307 15.071 1.25115 13.9975 1.25061C12.9261 1.25061 11.8493 1.33124 10.7905 1.48709C10.5745 0.982193 10.3234 0.481627 10.0511 0C8.05874 0.336056 6.11124 0.930784 4.27148 1.762C0.614379 7.11563 -0.376598 12.3345 0.11889 17.4798C2.25999 19.0448 4.65704 20.2354 7.20448 20.9989C7.77599 20.2359 8.28789 19.4231 8.72212 18.5778C7.89303 18.272 7.09292 17.8943 6.33109 17.449C6.5318 17.305 6.72759 17.1567 6.91682 17.0133C9.13175 18.0426 11.5518 18.5794 13.9997 18.5794C16.4476 18.5794 18.8682 18.0426 21.0831 17.0133C21.2745 17.1681 21.4708 17.3164 21.6688 17.449C20.9053 17.8954 20.1041 18.2742 19.2734 18.581C19.7093 19.4285 20.2173 20.2375 20.791 21C23.3412 20.2386 25.7399 19.0486 27.8816 17.4814H27.881C28.4624 11.5152 26.8878 6.34394 23.7186 1.75875H23.7197ZM9.34941 14.3157C7.9685 14.3157 6.82767 13.0759 6.82767 11.5504C6.82767 10.0249 7.92858 8.77426 9.34504 8.77426C10.7615 8.77426 11.893 10.0254 11.869 11.5504C11.8449 13.0759 10.7566 14.3157 9.34941 14.3157ZM18.6521 14.3157C17.269 14.3157 16.1326 13.0759 16.1326 11.5504C16.1326 10.0249 17.234 8.77426 18.6521 8.77426C20.0702 8.77426 21.1936 10.0254 21.1695 11.5504C21.1454 13.0759 20.0593 14.3157 18.6521 14.3157Z" fill="var(--fill-0, #FAF8F5)" style="fill:#FAF8F5;fill:color(display-p3 0.9804 0.9725 0.9608);fill-opacity:1;"/>
</svg>
