<svg preserveAspectRatio="xMidYMid meet" width="191" height="36" overflow="visible" style="display: block;" viewBox="0 0 191.083 35.9379" fill="none" xmlns="http://www.w3.org/2000/svg">
<g id="Layer_1" clip-path="url(#clip0_0_4)">
<path id="Vector" d="M153.282 8.93622C152.071 8.93622 151.42 9.55649 151.42 10.6709C151.42 11.7854 152.091 12.4712 153.282 12.4712C154.473 12.4712 155.145 11.8257 155.145 10.6709C155.145 9.51615 154.473 8.93622 153.282 8.93622ZM161.873 14.0698C158.621 14.0698 156.351 16.3794 156.351 19.8035C156.351 23.2275 158.595 25.406 161.959 25.406C164.427 25.406 166.153 24.4479 166.896 22.5619L164.427 21.6743C163.888 22.8291 163.328 23.2073 162.025 23.2073C160.3 23.2073 159.491 22.4509 159.313 20.6305H167.12C167.14 20.1867 167.14 19.9396 167.14 19.5866C167.14 16.2281 165.008 14.0748 161.868 14.0748L161.873 14.0698ZM159.313 18.694C159.516 16.9391 160.3 16.2029 161.893 16.2029C163.486 16.2029 164.27 16.8484 164.315 18.694H159.313ZM175.389 14.0698C173.415 14.0698 172.295 15.0683 171.756 16.8282V14.2917H168.906V25.1841H171.756V19.98C171.756 17.7359 172.743 16.6215 174.336 16.6215C175.705 16.6215 176.468 17.3527 176.468 18.8201V25.1791H179.318V18.6638C179.318 15.5978 177.995 14.0597 175.394 14.0597L175.389 14.0698ZM190.611 10.8979C189.868 10.8979 189.267 11.498 189.267 12.2292C189.267 12.9604 189.873 13.5605 190.611 13.5605C191.349 13.5605 191.954 12.9604 191.954 12.2292C191.954 11.498 191.349 10.8979 190.611 10.8979ZM190.611 13.2428C190.046 13.2428 189.588 12.7889 189.588 12.2292C189.588 11.6694 190.046 11.2156 190.611 11.2156C191.176 11.2156 191.634 11.6694 191.634 12.2292C191.634 12.7889 191.176 13.2428 190.611 13.2428ZM185.323 11.0441H182.473V14.2917H180.367V16.7828H182.473V21.8055C182.473 23.8276 183.842 25.1841 185.883 25.1841H188.239V22.693H185.323V16.7778H188.509V14.2866H185.323V11.0391V11.0441ZM190.865 12.3603C191.054 12.3048 191.155 12.1586 191.155 11.9669C191.155 11.7148 190.977 11.5484 190.667 11.5484H190.082V12.8646H190.428V12.3905H190.606L190.784 12.8646H191.186L190.977 12.4763L190.865 12.3653V12.3603ZM190.636 12.1031H190.428V11.8409H190.636C190.764 11.8409 190.809 11.8762 190.809 11.972C190.809 12.0678 190.764 12.1031 190.636 12.1031ZM78.7879 14.0698C75.536 14.0698 73.2663 16.3794 73.2663 19.8035C73.2663 23.2275 75.5106 25.406 78.8745 25.406C81.3427 25.406 83.0679 24.4479 83.8109 22.5619L81.3427 21.6743C80.8032 22.8291 80.2434 23.2073 78.9406 23.2073C77.2154 23.2073 76.4062 22.4509 76.2281 20.6305H84.0348C84.0552 20.1867 84.0552 19.9396 84.0552 19.5866C84.0552 16.2281 81.9228 14.0748 78.7828 14.0748L78.7879 14.0698ZM76.2281 18.694C76.4317 16.9391 77.2154 16.2029 78.8083 16.2029C80.4012 16.2029 81.1849 16.8484 81.2307 18.694H76.2281ZM30.6959 10.8525C29.8867 10.0658 28.8129 9.63717 27.678 9.63717H26.3803V8.34622C26.3803 7.22167 25.9426 6.16268 25.1538 5.35584L21.1487 1.29134C20.3294 0.459277 19.2301 0.000382174 18.0596 0.000382174C16.8891 0.000382174 15.7899 0.459277 14.9705 1.29134L10.9654 5.35584C10.1715 6.15764 9.73892 7.22167 9.73892 8.34622V9.63717H8.43611C7.30124 9.63717 6.23252 10.0709 5.41827 10.8525L1.31644 14.8212C0.476742 15.6331 0.0136332 16.7223 0.0136332 17.8822C0.0136332 19.047 0.476742 20.1312 1.31644 20.9431L5.42335 24.9118C6.23252 25.6985 7.30632 26.1271 8.4412 26.1271H9.74401V27.413C9.74401 28.5376 10.1817 29.6016 10.9756 30.4034L14.9807 34.473C15.8 35.305 16.8993 35.7639 18.0698 35.7639C19.2403 35.7639 20.3395 35.305 21.1589 34.473L25.164 30.4034C25.9579 29.6016 26.3905 28.5376 26.3905 27.413V26.1271H27.6882C28.8231 26.1271 29.8918 25.6935 30.706 24.9118L34.813 20.9431C35.6527 20.1312 36.1158 19.042 36.1158 17.8822C36.1158 16.7223 35.6527 15.6331 34.813 14.8212L30.706 10.8525H30.6959ZM12.4463 12.3351H14.0596C14.4769 12.3351 14.8738 12.4964 15.1741 12.7839L16.1054 13.6815L15.1334 14.6195C15.0774 14.6699 15.0163 14.7254 14.9603 14.7859L14.9247 14.8212C14.8687 14.8766 14.8128 14.9321 14.767 14.9825L13.8102 15.9508L12.9043 15.0279C12.6092 14.7304 12.4514 14.3371 12.4514 13.9236V12.325L12.4463 12.3351ZM12.4463 21.8458C12.4463 21.4323 12.6092 21.0389 12.8993 20.7414L13.8051 19.8186L14.7517 20.7767C14.8077 20.8372 14.8636 20.8927 14.9196 20.9482L14.9553 20.9835C15.0112 21.0389 15.0672 21.0944 15.1181 21.1398L16.1003 22.0878L15.169 22.9855C14.8687 23.2779 14.4718 23.4343 14.0545 23.4343H12.4412V21.8357L12.4463 21.8458ZM10.9501 18.8554C10.1562 19.6572 9.72365 20.7212 9.72365 21.8458V23.4444H8.42084C8.00353 23.4444 7.60658 23.283 7.30632 22.9956L3.2045 19.0269C2.89407 18.7243 2.72104 18.3259 2.72104 17.8922C2.72104 17.4586 2.89407 17.0602 3.2045 16.7576L7.30632 12.7889C7.60658 12.4964 8.00353 12.3401 8.42084 12.3401H9.72365V13.9387C9.72365 15.0632 10.1613 16.1273 10.9501 16.9291L11.9018 17.8973L10.9501 18.8655V18.8554ZM23.6525 27.4282C23.6525 27.8417 23.4897 28.235 23.1996 28.5325L19.1945 32.6021C18.8891 32.9097 18.4871 33.0812 18.0494 33.0812C17.6118 33.0812 17.2097 32.9097 16.9044 32.6021L12.8993 28.5376C12.6041 28.2401 12.4463 27.8467 12.4463 27.4332V26.1473H14.0596C15.1944 26.1473 16.2632 25.7136 17.0774 24.932L18.0545 23.989L19.0316 24.932C19.8459 25.7187 20.9146 26.1473 22.0495 26.1473H23.6627V27.4332L23.6525 27.4282ZM16.2428 17.8872C16.2428 16.8988 17.052 16.097 18.0494 16.097C19.0469 16.097 19.8561 16.8988 19.8561 17.8872C19.8561 18.8756 19.0469 19.6774 18.0494 19.6774C17.052 19.6774 16.2428 18.8756 16.2428 17.8872ZM23.6525 23.4393H22.0393C21.622 23.4393 21.225 23.2779 20.9248 22.9905L19.9935 22.0929L20.9655 21.1549C21.0215 21.0995 21.0825 21.049 21.1334 20.9936L21.1741 20.9532C21.2301 20.8977 21.2861 20.8423 21.3319 20.7918L22.2887 19.8236L23.1945 20.7465C23.4897 21.044 23.6475 21.4373 23.6475 21.8508V23.4494L23.6525 23.4393ZM23.6525 13.9286C23.6525 14.3421 23.4897 14.7354 23.1996 15.033L22.2937 15.9558L21.3421 14.9876C21.2912 14.9321 21.2352 14.8766 21.1792 14.8212L21.1385 14.7808C21.0825 14.7254 21.0215 14.6699 20.9706 14.6195L19.9935 13.6765L20.9248 12.7788C21.225 12.4864 21.622 12.33 22.0393 12.33H23.6525V13.9286ZM23.6525 9.63717H22.0393C20.9044 9.63717 19.8357 10.0709 19.0215 10.8575L18.0443 11.8005L17.0672 10.8575C16.2581 10.0709 15.1843 9.63717 14.0494 9.63717H12.4361V8.34622C12.4361 7.93271 12.599 7.53937 12.8891 7.24184L16.8942 3.17735C17.1996 2.86974 17.6016 2.69828 18.0393 2.69828C18.4769 2.69828 18.879 2.86974 19.1843 3.17735L23.1894 7.24184C23.4846 7.53937 23.6424 7.93271 23.6424 8.34622V9.63717H23.6525ZM32.8994 19.0218L28.7976 22.9905C28.4974 23.283 28.1004 23.4393 27.6831 23.4393H26.3854V21.8408C26.3854 20.7162 25.9477 19.6572 25.1589 18.8504L24.2073 17.8822L25.1589 16.9139C25.9528 16.1121 26.3854 15.0481 26.3854 13.9236V12.325H27.6831C28.1004 12.325 28.4974 12.4864 28.7976 12.7738L32.8994 16.7425C33.2099 17.045 33.3829 17.4434 33.3829 17.8771C33.3829 18.3108 33.2099 18.7092 32.8994 19.0117V19.0218ZM133.18 16.7374C132.483 15.0279 131.114 14.0698 129.231 14.0698C126.157 14.0698 124.361 16.3391 124.361 19.7631C124.361 23.1872 126.224 25.4111 129.363 25.4111C131.18 25.4111 132.503 24.4781 133.175 22.809V25.1892H136.025V14.2967H133.175V16.7425L133.18 16.7374ZM130.218 22.8493C128.198 22.8493 127.236 21.8508 127.236 19.7581C127.236 17.6653 128.203 16.6215 130.218 16.6215C132.234 16.6215 133.272 17.6199 133.272 19.7581C133.272 21.8962 132.305 22.8493 130.218 22.8493ZM106.452 19.3849H110.982C110.692 21.6743 108.849 22.8745 106.407 22.8745C102.885 22.8745 101.068 21.0742 101.068 17.3829C101.068 13.9135 102.885 12.0678 106.34 12.0678C108.697 12.0678 110.244 13.1117 110.915 15.7339L113.628 14.5539C112.865 11.266 109.928 9.39512 106.407 9.39512C101.536 9.39512 98.0146 12.6629 98.0146 17.3779C98.0146 22.0929 101.536 25.401 105.755 25.401C107.618 25.401 110.244 24.8463 111.231 21.8004V25.1791H113.811V16.9089H106.452V19.3748V19.3849ZM119.201 17.3829V14.2917H116.351V25.1841H119.201V20.6708C119.201 17.9124 120.458 16.7122 122.249 16.7122C122.966 16.7122 123.328 16.7778 123.73 16.9341V14.2665C123.328 14.1101 122.809 14.1101 122.407 14.1101C120.3 14.1101 119.491 15.7339 119.201 17.3779V17.3829ZM92.3046 14.0698C90.33 14.0698 89.2104 15.0683 88.671 16.8282V14.2917H85.8211V25.1841H88.671V19.98C88.671 17.7359 89.6583 16.6215 91.2512 16.6215C92.6201 16.6215 93.3835 17.3527 93.3835 18.8201V25.1791H96.2334V18.6638C96.2334 15.5978 94.9102 14.0597 92.3097 14.0597L92.3046 14.0698ZM50.4823 9.40016C46.0395 9.40016 42.4059 12.6225 42.4059 17.4031C42.4059 22.1837 46.0395 25.406 50.4823 25.406C54.9251 25.406 58.5791 22.1383 58.5791 17.4031C58.5791 12.6679 54.9455 9.40016 50.4823 9.40016ZM50.4823 22.7384C47.1642 22.7384 45.4797 20.9129 45.4797 17.3829C45.4797 13.853 47.1642 12.0678 50.4823 12.0678C53.8004 12.0678 55.5053 13.8681 55.5053 17.3829C55.5053 20.8977 53.8208 22.7384 50.4823 22.7384ZM151.873 25.1841H154.723V14.2917H151.873V25.1841ZM146.626 16.7374C145.929 15.0279 144.56 14.0698 142.677 14.0698C139.603 14.0698 137.806 16.3391 137.806 19.7631C137.806 23.1872 139.669 25.4111 142.809 25.4111C144.626 25.4111 145.949 24.4781 146.621 22.809V25.1892H149.471V9.62709H146.621V16.7425L146.626 16.7374ZM143.664 22.8493C141.643 22.8493 140.682 21.8508 140.682 19.7581C140.682 17.6653 141.649 16.6215 143.664 16.6215C145.679 16.6215 146.712 17.6199 146.712 19.7581C146.712 21.8962 145.75 22.8493 143.664 22.8493ZM67.3374 14.0698C65.4748 14.0698 64.0855 15.0027 63.3883 16.6921V14.2917H60.5384V28.9662H63.3883V22.8544C64.0855 24.4983 65.3832 25.4111 67.1797 25.4111C70.3197 25.4111 72.1823 23.1418 72.1823 19.7631C72.1823 16.3844 70.3858 14.0698 67.3374 14.0698ZM66.3298 22.8493C64.2433 22.8493 63.2814 21.8508 63.2814 19.7581C63.2814 17.6653 64.2433 16.6215 66.3298 16.6215C68.4163 16.6215 69.312 17.6199 69.312 19.7581C69.312 21.8962 68.3705 22.8493 66.3298 22.8493Z" fill="var(--fill-0, #FAF8F5)" style="fill:#FAF8F5;fill:color(display-p3 0.9804 0.9725 0.9608);fill-opacity:1;"/>
</g>
<defs>
<clipPath id="clip0_0_4">
<rect width="191.083" height="35.9379" fill="white" style="fill:white;fill-opacity:1;"/>
</clipPath>
</defs>
</svg>
