<svg preserveAspectRatio="xMidYMid meet" width="188" height="87" overflow="visible" style="display: block;" viewBox="0 0 188 86.6556" fill="none" xmlns="http://www.w3.org/2000/svg">
<g id="Group 2147263898">
<g id="Group">
<path id="Vector" d="M57.5331 18.5204C58.0608 16.8649 58.8109 15.4526 59.7732 14.273C60.7406 13.0987 61.8839 12.1623 63.2031 11.4794C64.5223 10.7914 65.9243 10.45 67.3987 10.45C69.5456 10.45 71.3718 11.0915 72.8876 12.3744C74.3982 13.6574 75.557 15.3232 76.3744 17.3615H76.9021V10.7086H84.45V37.0926H76.9021V30.4397H76.3744C75.5673 32.4832 74.4034 34.1438 72.8876 35.4268C71.377 36.7098 69.5456 37.3513 67.3987 37.3513C65.9191 37.3513 64.5326 37.0098 63.229 36.3218C61.9253 35.6337 60.7872 34.7025 59.7991 33.5282C58.8161 32.3538 58.0556 30.9312 57.528 29.2809C57.0003 27.6254 56.7364 25.8303 56.7364 23.9006C56.7364 21.971 57.0003 20.1706 57.528 18.5204H57.5331ZM64.9465 26.6218C65.2466 27.4495 65.6708 28.1686 66.214 28.7842C66.7623 29.3999 67.409 29.8861 68.1695 30.2379C68.9248 30.5897 69.7422 30.7656 70.6217 30.7656C71.5011 30.7656 72.3651 30.5897 73.0997 30.2379C73.8395 29.8861 74.4706 29.4102 74.9983 28.8153C75.526 28.2152 75.9554 27.5012 76.2916 26.6787C76.6279 25.851 76.7934 24.9301 76.7934 23.9058C76.7934 22.8815 76.6279 21.9658 76.2916 21.1329C75.9554 20.3051 75.526 19.5964 74.9983 18.9963C74.4706 18.3962 73.8395 17.9254 73.0997 17.5736C72.3599 17.2218 71.5322 17.046 70.6217 17.046C69.7111 17.046 68.9248 17.2218 68.1695 17.5736C67.4142 17.9254 66.7623 18.4117 66.214 19.0273C65.6656 19.643 65.2466 20.362 64.9465 21.1898C64.6465 22.0175 64.4964 22.9228 64.4964 23.911C64.4964 24.8991 64.6465 25.7992 64.9465 26.6321V26.6218Z" fill="var(--fill-0, #FAF8F5)" style="fill:#FAF8F5;fill:color(display-p3 0.9804 0.9725 0.9608);fill-opacity:1;"/>
<path id="Vector_2" d="M88.5637 0H96.3237V37.0979H88.5637V0Z" fill="var(--fill-0, #FAF8F5)" style="fill:#FAF8F5;fill:color(display-p3 0.9804 0.9725 0.9608);fill-opacity:1;"/>
<path id="Vector_3" d="M100.434 10.7138H107.925V17.3667H108.613C109.213 15.3594 110.289 13.7247 111.857 12.4572C113.424 11.1898 115.612 10.5224 118.427 10.45V18.7376H116.052C114.717 18.7376 113.553 18.898 112.571 19.2136C111.588 19.5292 110.77 20.0154 110.118 20.6673C109.467 21.3191 108.98 22.152 108.665 23.1763C108.349 24.1955 108.189 25.463 108.189 26.9736V37.1029H100.429V10.7138H100.434Z" fill="var(--fill-0, #FAF8F5)" style="fill:#FAF8F5;fill:color(display-p3 0.9804 0.9725 0.9608);fill-opacity:1;"/>
<path id="Vector_4" d="M121.398 10.7129H129.101V24.4844C129.101 26.5278 129.495 28.0591 130.291 29.0731C131.083 30.0922 132.231 30.6044 133.747 30.6044C134.451 30.6044 135.128 30.4647 135.78 30.1802C136.432 29.9008 137.027 29.4352 137.575 28.7782C138.124 28.1264 138.569 27.2573 138.92 26.1657C139.272 25.0793 139.448 23.7032 139.448 22.0529V10.7078H147.26V37.0917H139.712V30.4958H139.024C138.708 31.5149 138.284 32.4513 137.756 33.2894C137.229 34.1326 136.587 34.862 135.832 35.4777C135.077 36.0933 134.213 36.5796 133.245 36.9314C132.278 37.2832 131.248 37.4591 130.157 37.4591C128.853 37.4591 127.668 37.2469 126.598 36.8227C125.527 36.3985 124.611 35.7208 123.856 34.7896C123.1 33.8584 122.5 32.6685 122.061 31.2304C121.621 29.787 121.404 28.0643 121.404 26.057V10.7078L121.398 10.7129Z" fill="var(--fill-0, #FAF8F5)" style="fill:#FAF8F5;fill:color(display-p3 0.9804 0.9725 0.9608);fill-opacity:1;"/>
<path id="Vector_5" d="M158.034 28.3344C158.173 29.6019 158.675 30.5538 159.539 31.1849C160.398 31.8212 161.712 32.1316 163.471 32.1316C164.035 32.1316 164.557 32.0799 165.054 31.9713C165.545 31.8678 165.975 31.7178 166.347 31.5212C166.72 31.3298 167.02 31.0711 167.247 30.7555C167.475 30.44 167.589 30.0675 167.589 29.6484C167.589 29.188 167.49 28.8466 167.299 28.6189C167.102 28.3913 166.849 28.1792 166.533 27.9826C166.218 27.7912 165.876 27.6412 165.504 27.5325C165.131 27.4239 164.702 27.3204 164.211 27.217L159.461 26.4255C158.442 26.2496 157.418 25.9857 156.399 25.6339C155.38 25.2821 154.464 24.8165 153.657 24.232C152.85 23.6474 152.188 22.8972 151.681 21.9609C151.169 21.0297 150.915 19.9122 150.915 18.6137C150.915 16.9583 151.257 15.5718 151.945 14.4492C152.633 13.3266 153.528 12.4264 154.635 11.7591C155.742 11.0917 156.983 10.6158 158.354 10.3364C159.725 10.0519 161.112 9.91219 162.519 9.91219C164.738 9.91219 166.601 10.1657 168.111 10.6778C169.622 11.19 170.863 11.8677 171.831 12.711C172.798 13.5542 173.528 14.5423 174.019 15.6649C174.511 16.7875 174.847 17.9671 175.023 19.2035H167.159C167.056 18.1171 166.632 17.2635 165.892 16.6427C165.157 16.0271 164.024 15.7218 162.514 15.7218C161.986 15.7218 161.5 15.758 161.06 15.8253C160.62 15.8977 160.222 16.0374 159.87 16.2495C159.518 16.4616 159.234 16.7255 159.027 17.041C158.815 17.3566 158.711 17.7291 158.711 18.1481C158.711 18.4637 158.789 18.7637 158.949 19.0431C159.11 19.3276 159.322 19.5449 159.586 19.7001C159.849 19.8605 160.155 19.9898 160.512 20.0933C160.863 20.1968 161.251 20.3054 161.67 20.4089L166.632 21.3038C167.687 21.4797 168.732 21.7332 169.772 22.0695C170.807 22.4058 171.748 22.8765 172.597 23.4922C173.445 24.1078 174.102 24.8631 174.573 25.7633C175.043 26.6634 175.287 27.7602 175.287 29.0587C175.287 30.6055 174.981 31.9454 174.366 33.068C173.75 34.1906 172.907 35.1166 171.836 35.8409C170.765 36.56 169.513 37.098 168.091 37.4498C166.668 37.8016 165.126 37.9775 163.471 37.9775C161.288 37.9775 159.399 37.724 157.796 37.2118C156.192 36.6997 154.857 36.0064 153.786 35.127C152.715 34.2475 151.888 33.2232 151.308 32.0385C150.724 30.8642 150.367 29.6226 150.227 28.3189H158.039V28.3344H158.034Z" fill="var(--fill-0, #FAF8F5)" style="fill:#FAF8F5;fill:color(display-p3 0.9804 0.9725 0.9608);fill-opacity:1;"/>
<path id="Vector_6" d="M27.6256 30.3457L29.4776 10.7078H38.4482L40.3002 30.3457L41.3401 30.5475C42.3333 28.2247 45.5925 20.7854 46.2806 10.7129H55.9909L48.7069 37.0969H36.0633L34.2474 23.9049H33.6991L31.8832 37.0969H19.2241L11.9142 10.7129H21.6452C22.3333 20.7906 25.5873 28.2247 26.5857 30.5475L27.6256 30.3457Z" fill="var(--fill-0, #FAF8F5)" style="fill:#FAF8F5;fill:color(display-p3 0.9804 0.9725 0.9608);fill-opacity:1;"/>
</g>
<g id="Vector_7">
<path d="M0.0155193 49.5683H3.65753V55.5848H4.02485C4.34042 54.5657 4.78015 53.6707 5.34404 52.8947C5.90793 52.1239 6.54942 51.4514 7.26852 50.8875C7.98761 50.3236 8.78948 49.9045 9.66895 49.62C10.5484 49.3406 11.4796 49.1958 12.4677 49.1958C14.506 49.1958 16.2029 49.7752 17.5583 50.9392C18.9137 52.098 19.819 53.7897 20.2743 56.0039H20.6416C20.9571 54.9123 21.3969 53.9552 21.9608 53.1275C22.5247 52.2998 23.1817 51.5962 23.937 51.0168C24.6923 50.4374 25.5304 49.9873 26.4409 49.6717C27.3565 49.3562 28.324 49.1958 29.3431 49.1958C30.6416 49.1958 31.8056 49.4182 32.8247 49.8528C33.8439 50.2925 34.7234 50.9547 35.4631 51.829C36.2029 52.7085 36.7617 53.7897 37.1497 55.0727C37.5376 56.3557 37.7291 57.8611 37.7291 59.5838V75.9367H33.9318V60.1115C33.9318 57.5093 33.4042 55.6004 32.3488 54.3898C31.2934 53.1741 29.8346 52.5688 27.9722 52.5688C26.9168 52.5688 25.9391 52.7809 25.0441 53.1999C24.1491 53.6242 23.3834 54.245 22.7471 55.0727C22.116 55.9004 21.6142 56.9558 21.2417 58.2388C20.8744 59.5217 20.6881 61.0427 20.6881 62.8016V75.9367H16.9944V60.1115C16.9944 57.5093 16.477 55.6004 15.4372 54.3898C14.3974 53.1741 12.9333 52.5688 11.0295 52.5688C10.2897 52.5688 9.49822 52.7085 8.65496 52.993C7.81171 53.2724 7.02538 53.7949 6.30629 54.5502C5.58719 55.3055 4.98709 56.3453 4.51114 57.6645C4.03519 58.9837 3.79722 60.6961 3.79722 62.8068V75.9419H0V49.5631L0.0155193 49.5683Z" fill="url(#paint0_linear_0_4)"/>
<path d="M42.6689 57.2196C43.3207 55.533 44.2157 54.0742 45.359 52.8429C46.5023 51.6117 47.8629 50.6442 49.446 49.9407C51.029 49.2371 52.7517 48.8853 54.6141 48.8853C56.4765 48.8853 58.2096 49.2371 59.8081 49.9407C61.4067 50.6442 62.7828 51.6117 63.9261 52.8429C65.0694 54.0742 65.9644 55.533 66.6162 57.2196C67.2681 58.9061 67.594 60.7529 67.594 62.7602V64.2398H45.5401C45.6798 65.6469 45.9953 66.904 46.4868 68.0111C46.9783 69.1182 47.6405 70.0701 48.463 70.8616C49.2908 71.6531 50.2478 72.2584 51.3394 72.6826C52.431 73.1068 53.626 73.3138 54.9245 73.3138C57.1749 73.3138 59.0114 72.8326 60.4393 71.8652C61.8619 70.8978 62.8397 69.5528 63.3674 67.83H67.325C66.9732 69.0975 66.4455 70.277 65.7419 71.3634C65.0384 72.455 64.1692 73.3862 63.1294 74.157C62.0896 74.933 60.8893 75.5383 59.5132 75.978C58.1423 76.4178 56.611 76.6402 54.9245 76.6402C52.8862 76.6402 51.0445 76.2884 49.4097 75.5849C47.775 74.8813 46.3833 73.9139 45.24 72.6826C44.0967 71.4514 43.2173 69.9925 42.6016 68.306C41.986 66.6195 41.6808 64.7726 41.6808 62.7654C41.6808 60.7581 42.0067 58.9164 42.6586 57.2247L42.6689 57.2196ZM63.6933 61.2806C63.6209 60.0132 63.357 58.8285 62.9018 57.7214C62.4465 56.6143 61.8206 55.6365 61.029 54.7933C60.2375 53.95 59.296 53.2826 58.2044 52.786C57.1128 52.2945 55.9178 52.0462 54.6193 52.0462C53.3208 52.0462 52.1309 52.2945 51.06 52.786C49.9892 53.2775 49.0528 53.9397 48.2664 54.7622C47.4749 55.59 46.849 56.5625 46.3937 57.6903C45.9384 58.8181 45.6746 60.0131 45.6022 61.2754H63.6985L63.6933 61.2806Z" fill="url(#paint1_linear_0_4)"/>
<path d="M71.8719 49.5683H75.5139V55.5848H75.8812C76.1968 54.5657 76.6365 53.6707 77.2004 52.8947C77.7643 52.1239 78.4058 51.4514 79.1249 50.8875C79.844 50.3236 80.6459 49.9045 81.5253 49.62C82.4048 49.3406 83.336 49.1958 84.3241 49.1958C86.3624 49.1958 88.0592 49.7752 89.4147 50.9392C90.7701 52.098 91.6754 53.7897 92.1307 56.0039H92.498C92.8135 54.9123 93.2533 53.9552 93.8172 53.1275C94.3811 52.2998 95.0381 51.5962 95.7934 51.0168C96.5487 50.4374 97.3867 49.9873 98.2972 49.6717C99.2129 49.3562 100.18 49.1958 101.199 49.1958C102.498 49.1958 103.662 49.4182 104.681 49.8528C105.7 50.2925 106.58 50.9547 107.32 51.829C108.059 52.7085 108.618 53.7897 109.006 55.0727C109.394 56.3557 109.585 57.8611 109.585 59.5838V75.9367H105.788V60.1115C105.788 57.5093 105.261 55.6004 104.205 54.3898C103.15 53.1741 101.691 52.5688 99.8286 52.5688C98.7732 52.5688 97.7954 52.7809 96.9004 53.1999C96.0055 53.6242 95.2398 54.245 94.6035 55.0727C93.9723 55.9004 93.4705 56.9558 93.0981 58.2388C92.7308 59.5217 92.5445 61.0427 92.5445 62.8016V75.9367H88.8508V60.1115C88.8508 57.5093 88.3334 55.6004 87.2936 54.3898C86.2538 53.1741 84.7897 52.5688 82.8859 52.5688C82.1461 52.5688 81.3546 52.7085 80.5114 52.993C79.6681 53.2724 78.8818 53.7949 78.1627 54.5502C77.4436 55.3055 76.8435 56.3453 76.3675 57.6645C75.8916 58.9837 75.6536 60.6961 75.6536 62.8068V75.9419H71.8564V49.5631L71.8719 49.5683Z" fill="url(#paint2_linear_0_4)"/>
<path d="M114.553 57.2714C115.221 55.5849 116.152 54.1156 117.347 52.8637C118.542 51.6169 119.965 50.6392 121.62 49.9356C123.271 49.232 125.102 48.8802 127.109 48.8802C129.116 48.8802 130.901 49.232 132.572 49.9356C134.243 50.6392 135.676 51.6169 136.871 52.8637C138.066 54.1105 138.997 55.59 139.665 57.2972C140.332 59.0044 140.668 60.841 140.668 62.812C140.668 64.783 140.332 66.5575 139.665 68.244C138.997 69.9305 138.066 71.3997 136.871 72.6465C135.676 73.8933 134.243 74.871 132.572 75.5746C130.901 76.2782 129.08 76.63 127.109 76.63C125.138 76.63 123.317 76.2782 121.651 75.5746C119.98 74.871 118.547 73.8933 117.352 72.6465C116.157 71.3997 115.226 69.9305 114.559 68.244C113.891 66.5575 113.555 64.7261 113.555 62.7551C113.555 60.7841 113.886 58.9579 114.559 57.2662L114.553 57.2714ZM118.087 66.8731C118.578 68.1405 119.256 69.2373 120.12 70.1685C120.984 71.0997 122.008 71.8239 123.208 72.3309C124.404 72.8431 125.707 73.0966 127.114 73.0966C128.521 73.0966 129.815 72.8431 130.994 72.3309C132.174 71.8187 133.203 71.0997 134.083 70.1685C134.962 69.2373 135.645 68.1353 136.142 66.8731C136.633 65.6056 136.882 64.2347 136.882 62.7603C136.882 61.2859 136.633 59.8684 136.142 58.6164C135.65 57.3697 134.962 56.2781 134.083 55.3469C133.203 54.4157 132.174 53.6966 130.994 53.1844C129.815 52.6775 128.521 52.4188 127.114 52.4188C125.707 52.4188 124.404 52.6723 123.208 53.1844C122.013 53.6966 120.984 54.4157 120.12 55.3469C119.256 56.2781 118.578 57.3697 118.087 58.6164C117.595 59.8632 117.347 61.2445 117.347 62.7603C117.347 64.276 117.595 65.6108 118.087 66.8731Z" fill="url(#paint3_linear_0_4)"/>
<path d="M144.891 49.5678H148.533V56.6398H148.9C149.671 54.3532 151.047 52.5684 153.013 51.2854C154.984 50.0024 157.565 49.3609 160.768 49.3609V53.3702H158.921C157.198 53.3702 155.703 53.5927 154.436 54.0272C153.168 54.467 152.108 55.1602 151.244 56.1121C150.38 57.064 149.738 58.259 149.319 59.6972C148.895 61.1406 148.688 62.8633 148.688 64.8653V75.9466H144.891V49.5678Z" fill="url(#paint4_linear_0_4)"/>
<path d="M171.74 75.9469L161.771 49.5681H165.677L174.86 73.7327L184.094 49.5681H188L173.965 86.6556H170.059L174.12 75.9469H171.74Z" fill="url(#paint5_linear_0_4)"/>
</g>
</g>
<defs>
<linearGradient id="paint0_linear_0_4" x1="0" y1="61.5897" x2="219.113" y2="61.5897" gradientUnits="userSpaceOnUse">
<stop stop-color="#5159FF" style="stop-color:#5159FF;stop-color:color(display-p3 0.3157 0.3499 1.0000);stop-opacity:1;"/>
<stop offset="1" stop-color="#EEA0FF" style="stop-color:#EEA0FF;stop-color:color(display-p3 0.9314 0.6283 1.0000);stop-opacity:1;"/>
</linearGradient>
<linearGradient id="paint1_linear_0_4" x1="0" y1="61.5897" x2="219.113" y2="61.5897" gradientUnits="userSpaceOnUse">
<stop stop-color="#5159FF" style="stop-color:#5159FF;stop-color:color(display-p3 0.3157 0.3499 1.0000);stop-opacity:1;"/>
<stop offset="1" stop-color="#EEA0FF" style="stop-color:#EEA0FF;stop-color:color(display-p3 0.9314 0.6283 1.0000);stop-opacity:1;"/>
</linearGradient>
<linearGradient id="paint2_linear_0_4" x1="0" y1="61.5897" x2="219.113" y2="61.5897" gradientUnits="userSpaceOnUse">
<stop stop-color="#5159FF" style="stop-color:#5159FF;stop-color:color(display-p3 0.3157 0.3499 1.0000);stop-opacity:1;"/>
<stop offset="1" stop-color="#EEA0FF" style="stop-color:#EEA0FF;stop-color:color(display-p3 0.9314 0.6283 1.0000);stop-opacity:1;"/>
</linearGradient>
<linearGradient id="paint3_linear_0_4" x1="0" y1="61.5897" x2="219.113" y2="61.5897" gradientUnits="userSpaceOnUse">
<stop stop-color="#5159FF" style="stop-color:#5159FF;stop-color:color(display-p3 0.3157 0.3499 1.0000);stop-opacity:1;"/>
<stop offset="1" stop-color="#EEA0FF" style="stop-color:#EEA0FF;stop-color:color(display-p3 0.9314 0.6283 1.0000);stop-opacity:1;"/>
</linearGradient>
<linearGradient id="paint4_linear_0_4" x1="0" y1="61.5897" x2="219.113" y2="61.5897" gradientUnits="userSpaceOnUse">
<stop stop-color="#5159FF" style="stop-color:#5159FF;stop-color:color(display-p3 0.3157 0.3499 1.0000);stop-opacity:1;"/>
<stop offset="1" stop-color="#EEA0FF" style="stop-color:#EEA0FF;stop-color:color(display-p3 0.9314 0.6283 1.0000);stop-opacity:1;"/>
</linearGradient>
<linearGradient id="paint5_linear_0_4" x1="0" y1="61.5897" x2="219.113" y2="61.5897" gradientUnits="userSpaceOnUse">
<stop stop-color="#5159FF" style="stop-color:#5159FF;stop-color:color(display-p3 0.3157 0.3499 1.0000);stop-opacity:1;"/>
<stop offset="1" stop-color="#EEA0FF" style="stop-color:#EEA0FF;stop-color:color(display-p3 0.9314 0.6283 1.0000);stop-opacity:1;"/>
</linearGradient>
</defs>
</svg>
