<svg preserveAspectRatio="none" width="100%" height="100%" overflow="visible" style="display: block;" viewBox="0 0 72 72" fill="none" xmlns="http://www.w3.org/2000/svg">
<g id="Portable Icon" clip-path="url(#clip0_0_4)">
<path id="Vector" d="M26.57 1V26.57H1V1H26.57ZM27.57 0H0V27.57H27.57V0Z" fill="var(--fill-0, #FAF8F5)" style="fill:#FAF8F5;fill:color(display-p3 0.9804 0.9725 0.9608);fill-opacity:1;"/>
<path id="Vector_2" d="M13.79 8.03L19.54 13.78L13.79 19.53L8.04 13.78L13.79 8.03ZM13.79 6.62L6.62 13.79L13.79 20.96L20.96 13.79L13.79 6.62Z" fill="var(--fill-0, #FAF8F5)" style="fill:#FAF8F5;fill:color(display-p3 0.9804 0.9725 0.9608);fill-opacity:1;"/>
<path id="Vector_3" d="M58.21 8.03L63.96 13.78L58.21 19.53L52.46 13.78L58.21 8.03ZM58.21 6.62L51.04 13.79L58.21 20.96L65.38 13.79L58.21 6.62Z" fill="var(--fill-0, #FAF8F5)" style="fill:#FAF8F5;fill:color(display-p3 0.9804 0.9725 0.9608);fill-opacity:1;"/>
<path id="Vector_4" d="M13.79 52.46L19.54 58.21L13.79 63.96L8.04 58.21L13.79 52.46ZM13.79 51.05L6.62 58.22L13.79 65.39L20.96 58.22L13.79 51.05Z" fill="var(--fill-0, #FAF8F5)" style="fill:#FAF8F5;fill:color(display-p3 0.9804 0.9725 0.9608);fill-opacity:1;"/>
<path id="Vector_5" d="M58.21 52.46L63.96 58.21L58.21 63.96L52.46 58.21L58.21 52.46ZM58.21 51.05L51.04 58.22L58.21 65.39L65.38 58.22L58.21 51.05Z" fill="var(--fill-0, #FAF8F5)" style="fill:#FAF8F5;fill:color(display-p3 0.9804 0.9725 0.9608);fill-opacity:1;"/>
<path id="Vector_6" d="M71 1V26.57H45.43V1H71ZM72 0H44.43V27.57H72V0Z" fill="var(--fill-0, #FAF8F5)" style="fill:#FAF8F5;fill:color(display-p3 0.9804 0.9725 0.9608);fill-opacity:1;"/>
<path id="Vector_7" d="M26.57 45.43V71H1V45.43H26.57ZM27.57 44.43H0V72H27.57V44.43Z" fill="var(--fill-0, #FAF8F5)" style="fill:#FAF8F5;fill:color(display-p3 0.9804 0.9725 0.9608);fill-opacity:1;"/>
<path id="Vector_8" d="M71 45.43V71H45.43V45.43H71ZM72 44.43H44.43V72H72V44.43Z" fill="var(--fill-0, #FAF8F5)" style="fill:#FAF8F5;fill:color(display-p3 0.9804 0.9725 0.9608);fill-opacity:1;"/>
<path id="Vector_9" d="M13.79 30.17C13.24 30.17 12.79 30.62 12.79 31.17C12.79 31.72 13.24 32.17 13.79 32.17C14.34 32.17 14.79 31.72 14.79 31.17C14.79 30.62 14.34 30.17 13.79 30.17Z" fill="var(--fill-0, #54575A)" style="fill:#54575A;fill:color(display-p3 0.3294 0.3412 0.3529);fill-opacity:1;"/>
<path id="Vector_10" d="M13.79 35.17C13.24 35.17 12.79 35.62 12.79 36.17C12.79 36.72 13.24 37.17 13.79 37.17C14.34 37.17 14.79 36.72 14.79 36.17C14.79 35.62 14.34 35.17 13.79 35.17Z" fill="var(--fill-0, #54575A)" style="fill:#54575A;fill:color(display-p3 0.3294 0.3412 0.3529);fill-opacity:1;"/>
<path id="Vector_11" d="M13.79 40.17C13.24 40.17 12.79 40.62 12.79 41.17C12.79 41.72 13.24 42.17 13.79 42.17C14.34 42.17 14.79 41.72 14.79 41.17C14.79 40.62 14.34 40.17 13.79 40.17Z" fill="var(--fill-0, #54575A)" style="fill:#54575A;fill:color(display-p3 0.3294 0.3412 0.3529);fill-opacity:1;"/>
<path id="Vector_12" d="M58.21 30.17C57.66 30.17 57.21 30.62 57.21 31.17C57.21 31.72 57.66 32.17 58.21 32.17C58.76 32.17 59.21 31.72 59.21 31.17C59.21 30.62 58.76 30.17 58.21 30.17Z" fill="var(--fill-0, #54575A)" style="fill:#54575A;fill:color(display-p3 0.3294 0.3412 0.3529);fill-opacity:1;"/>
<path id="Vector_13" d="M58.21 35.17C57.66 35.17 57.21 35.62 57.21 36.17C57.21 36.72 57.66 37.17 58.21 37.17C58.76 37.17 59.21 36.72 59.21 36.17C59.21 35.62 58.76 35.17 58.21 35.17Z" fill="var(--fill-0, #54575A)" style="fill:#54575A;fill:color(display-p3 0.3294 0.3412 0.3529);fill-opacity:1;"/>
<path id="Vector_14" d="M58.21 40.17C57.66 40.17 57.21 40.62 57.21 41.17C57.21 41.72 57.66 42.17 58.21 42.17C58.76 42.17 59.21 41.72 59.21 41.17C59.21 40.62 58.76 40.17 58.21 40.17Z" fill="var(--fill-0, #54575A)" style="fill:#54575A;fill:color(display-p3 0.3294 0.3412 0.3529);fill-opacity:1;"/>
<path id="Vector_15" d="M31 57.38C30.45 57.38 30 57.83 30 58.38C30 58.93 30.45 59.38 31 59.38C31.55 59.38 32 58.93 32 58.38C32 57.83 31.55 57.38 31 57.38Z" fill="var(--fill-0, #54575A)" style="fill:#54575A;fill:color(display-p3 0.3294 0.3412 0.3529);fill-opacity:1;"/>
<path id="Vector_16" d="M36 57.38C35.45 57.38 35 57.83 35 58.38C35 58.93 35.45 59.38 36 59.38C36.55 59.38 37 58.93 37 58.38C37 57.83 36.55 57.38 36 57.38Z" fill="var(--fill-0, #54575A)" style="fill:#54575A;fill:color(display-p3 0.3294 0.3412 0.3529);fill-opacity:1;"/>
<path id="Vector_17" d="M41 57.38C40.45 57.38 40 57.83 40 58.38C40 58.93 40.45 59.38 41 59.38C41.55 59.38 42 58.93 42 58.38C42 57.83 41.55 57.38 41 57.38Z" fill="var(--fill-0, #54575A)" style="fill:#54575A;fill:color(display-p3 0.3294 0.3412 0.3529);fill-opacity:1;"/>
<path id="Vector_18" d="M31 12.96C30.45 12.96 30 13.41 30 13.96C30 14.51 30.45 14.96 31 14.96C31.55 14.96 32 14.51 32 13.96C32 13.41 31.55 12.96 31 12.96Z" fill="var(--fill-0, #54575A)" style="fill:#54575A;fill:color(display-p3 0.3294 0.3412 0.3529);fill-opacity:1;"/>
<path id="Vector_19" d="M36 12.96C35.45 12.96 35 13.41 35 13.96C35 14.51 35.45 14.96 36 14.96C36.55 14.96 37 14.51 37 13.96C37 13.41 36.55 12.96 36 12.96Z" fill="var(--fill-0, #54575A)" style="fill:#54575A;fill:color(display-p3 0.3294 0.3412 0.3529);fill-opacity:1;"/>
<path id="Vector_20" d="M41 12.96C40.45 12.96 40 13.41 40 13.96C40 14.51 40.45 14.96 41 14.96C41.55 14.96 42 14.51 42 13.96C42 13.41 41.55 12.96 41 12.96Z" fill="var(--fill-0, #54575A)" style="fill:#54575A;fill:color(display-p3 0.3294 0.3412 0.3529);fill-opacity:1;"/>
</g>
<defs>
<clipPath id="clip0_0_4">
<rect width="72" height="72" fill="white" style="fill:white;fill-opacity:1;"/>
</clipPath>
</defs>
</svg>
